<svg id="Layer_1" data-name="Layer 1" xmlns="http://www.w3.org/2000/svg" viewBox="0 0 709.61 429.45"><defs><style>.cls-1{fill:#fff;}</style></defs><title>DecisionCat Logo</title><g id="EayWVn"><path class="cls-1" d="M702.69,684.14h-592V266.37h592Zm-226.08-47,3.87-.49-.11-.6c-1.26.31-2.7-.17-3.75,1.11-1.2-.68-2.28-.25-3.37.12l.07.55ZM373,462.53l0,0a3.83,3.83,0,0,1-1.27.56c-3.31.11-6,1.7-8.53,3.35l.45,1.1a11.45,11.45,0,0,0,1.45,1.52,4.35,4.35,0,0,0,1.84.79,11,11,0,0,0,2.33-.2l-1.42,2.23,6.31-1-.21,1.19a3.89,3.89,0,0,0,1.33.17c.38-.08.66-.6,1-.69,2.81-.61,5.63-1.22,8.46-1.71a40.92,40.92,0,0,1,4.16-.29l0-.34h-8.07a7.87,7.87,0,0,1,2-.61,55.25,55.25,0,0,1,16.22-1,121.62,121.62,0,0,1,12.33,1.34c4,.66,8,.42,12,1.78,3.69,1.25,8,.75,12,1l0-.34-3-.9c2.37-1.41,5.55.28,7-2.85.42-.92,1.61-1.48,2.82-2.52l-1.93-1.67c.08-.18.26-.55.51-1.1l-2.09-.5c.2-1.46-.93-1.67-2-1.82-2.38-.35-4.76-.63-7.15-.86-7.85-.76-15.71-1.45-23.56-2.22-8.5-.84-17-1.27-25.41.73-3.93.93-8.11,1.07-11.56,3.54a4.81,4.81,0,0,0-.78,1,3.45,3.45,0,0,0,1,.39C370.53,462.56,371.77,462.53,373,462.53ZM563.67,290.12c-1.32,1.05-1.61-.22-2.09-1-.71-1.09-2-1.55-2.73-.94l-2.31,3a.54.54,0,0,0-.09.12c-.66,1.88-2.45,2.69-3.82,3.84-2,1.71-4.29,3.15-6.42,4.75-2.75,2.08-5.49,4.17-8.18,6.31-5,4-9.88,8-14.85,11.91a14.91,14.91,0,0,1-2.56,1.37l.06.06c.1-.3.11-.72.32-.87.62-.45,1.63-.64,1.94-1.23,1.26-2.38,3.65-3.51,5.45-5.27.66-.65,1.29-1.32,1.94-2L530,310c-.56.43-1.14.85-1.68,1.3-1.26,1-2.47,2.1-3.74,3.09-2,1.53-4,3-6,4.5-2.24,1.65-4.45,3.34-6.76,4.87s-4.68,2.82-7,4.22c-1.85,1.1-3.62,2.38-5.56,3.29-3,1.42-6.16,2.66-9.3,3.83-1.27.48-2.87,1.12-4,.74-1.75-.6-2.83-.51-3.73,1.09a.84.84,0,0,1-.43.38,29.27,29.27,0,0,1-5.55,1.56,62.42,62.42,0,0,1-8.43,0c-6.19-.3-12.37-.87-18.57-1-9.7-.24-19.42-.31-29.13-.3-15.62,0-31.25-.19-46.82,1.43-5.91.62-11.81,1.31-17.71,2-2.68.33-5.36.77-8,1.17l0-.2,1.62-.58c-.24-.14-.33-.23-.4-.22-5.45.87-10.92,1.6-16.33,2.68-3.19.63-5.42-.9-7.26-2.86-3.7-3.94-7.07-8.2-10.61-12.3-2.39-2.77-4.71-5.62-7.31-8.19s-5.61-5.05-8.52-7.45c-2.1-1.73-4.36-3.26-6.52-4.92-4.51-3.45-9-7-13.52-10.37a21.11,21.11,0,0,0-3.64-1.76c1.54,1.5,3.21,2.7,4.81,4,2.15,1.72,4.26,3.5,6.37,5.28,1.31,1.1,2.52,2.33,3.87,3.39,3.54,2.75,7.14,5.41,10.66,8.18a8,8,0,0,1,1.32,2.05,8.4,8.4,0,0,1,1.73,1.21c.83.93,1.46,2,2.26,3a36.65,36.65,0,0,1,3,3.42c1.7,2.7,3,5.63,4.83,8.25,1.11,1.61,2.85,2.76,4.19,4.24a13,13,0,0,1,1.44,2.5l-.44.37a7,7,0,0,1-1.72-1.09,65.73,65.73,0,0,1-4.23-5c-2.21-3-4.3-6.14-6.43-9.22a42.8,42.8,0,0,0-7.48-7.85c-2.52-2.19-5.09-4.33-7.73-6.38-1.5-1.17-3.17-2.12-4.77-3.16l-.38.47a10.63,10.63,0,0,0,1.17,1.24c1.17.91,2.45,1.67,3.57,2.63,3.13,2.7,6.47,5.13,9.17,8.37a50.12,50.12,0,0,1,5,7.55,38.24,38.24,0,0,0,2.81,3.82c.33.46.62.94.91,1.42.48.77.94,1.55,1.41,2.33s.83,1.34,1.22,2a22.68,22.68,0,0,0,1.64,2.79c.9,1.1,2,2,3,3.07a19,19,0,0,1,1.3,2c-.95,0-1.62.21-1.89,0a45,45,0,0,1-3.86-3.83c-.66-.76-1.2-1.19-2-.53a10.84,10.84,0,0,1-2.15-1.66,97.26,97.26,0,0,1-6.5-10.12,34.11,34.11,0,0,0-5.47-6.66,75.66,75.66,0,0,0-6.59-5.48c-2.07-1.63-4.2-3.18-6.28-4.79s-4.17-3.38-6.32-5c-2.53-1.9-5.12-3.72-7.69-5.58l0,.52c-.27.24-.61.74-.78.69-1.33-.4-2.63-.91-3.93-1.4-.51-.2-1-.54-1.51-.69-2.23-.62-3.84.59-5.45,2l1.47,1.33c-2.75.3-4.15,2-5.24,4.07-.64,1.21-1.18,2.48-1.78,3.7-.15.3-.42.54-.58.83a19.33,19.33,0,0,0-1.5,2.89,15.87,15.87,0,0,0-.43,3,2.27,2.27,0,0,0-2.77,1.35c-1,2-2.11,3.94-3.07,5.95-1.75,3.66-3.41,7.35-5.12,11-.29.64-.65,1.24-1.05,2l.69,1h-.84c-.52,1.15-1,2.12-1.4,3.14-.5,1.34-.89,2.72-1.44,4.42-.17.23-.59.78-1,1.35a5.22,5.22,0,0,0-.53.95c-.92,2.24-1.87,4.47-2.7,6.74-.47,1.3-.45,2.85-1.16,4a89.28,89.28,0,0,0-4.36,8.48,8.74,8.74,0,0,1-5.71,4.92c-4.19,1.14-8.67,1.59-12.19,4.53a31.24,31.24,0,0,0-3,2.51,2.27,2.27,0,0,1-1.91.91,3.32,3.32,0,0,0-3.14,1.53l3.21-.78.1.39-.58.39c-1.63,1.12-3.35,2.15-4.87,3.4-.92.76-1.43,2-2.31,2.81-2,1.83-4.16,3.46-6.12,5.31s-3.48,3.59-5.21,5.4c-2,2.14-4.09,4.27-6.12,6.42-.33.36-.49.87-.82,1.24-.94,1.06-2,2-2.87,3.14-1.06,1.44-1.9,3-2.91,4.53-1.11,1.64-2.3,3.24-3.47,4.85-.79,1.1-1.41,2.47-2.46,3.21-1.93,1.34-2.77,3.36-3.92,5.2-1.43,2.29-2.74,4.65-4.08,7s-2.83,4.94-4.22,7.42c-.52.94-1,1.92-1.49,2.85q-2.26,4-4.56,8c-.61,1.06-1.25,2.1-2,3.37a2.14,2.14,0,0,1,0,1.07c-1.36,2.89-2.47,5.88-3.55,8.88-1.32,3.62-2.65,7.23-3.91,10.87-.74,2.14-1.34,4.32-2,6.47s-.28,4.33-1.84,6.07c-.12.13-.19.53-.1.61.89.84.1,1.61-.13,2.35s-.85,1.33-1,2a20.23,20.23,0,0,0,.08,2.57c-.06,1.18-.54,2.43-.3,3.52.32,1.41.59,2.56-.89,3.49l1-.26c0,1.2,0,2.29,0,3.38s-.19,2.08-.13,3.11c.08,1.28.7,2.51.18,3.87a4.15,4.15,0,0,0,.09,1.7c.15,1.67.37,3.34.44,5a30.11,30.11,0,0,0-.09,3.54c.38,2.29,1.08,4.52,1.53,6.8s1.37,4.56.9,7a4.32,4.32,0,0,0,.57,2.75c.95,1.58,1.78,3.12,1.47,5a4.57,4.57,0,0,0,1.41,4c.55.51,1.18.86,1.14,1.6-.07,1.59,1.7,2.85.78,4.58-.06.13.28.48.43.72,1.24,2,2.52,4.06,3.7,6.13.87,1.53,1.6,3.13,2.38,4.7a25,25,0,0,0,1.46,3,31.66,31.66,0,0,0,3.59,4.75c1.45,1.46,2.16,3.32,3.49,5.11-.61.1-1,.18-1.49.24s-.66.08-1,.12a3.89,3.89,0,0,0,.4,1.1,8,8,0,0,0,1,.8,7.57,7.57,0,0,1,1.91,1.92c.6,1.25,1.39,1.6,2.62.78l-1.38-2.12.44-.37c1.61,1.15,3.27,2.23,4.8,3.47,2,1.61,3.77,3.45,5.79,5,2.29,1.77,4.76,3.33,7.12,5a4.59,4.59,0,0,1,.83,1.13c-4.8-1.73-8.51-5-12.55-7.82l-.5.57c.58.66,1.2,1.29,1.73,2a16.71,16.71,0,0,0,5.21,4.6c4.19,2.35,8.18,5,12.27,7.58,2.28,1.4,4.57,2.79,6.91,4.12,1.53.87,3.14,1.6,4.71,2.4l6.42,3.31c.94.49,2.33.72,2.73,1.48a3.38,3.38,0,0,0,2.53,1.77,29,29,0,0,1,3.9,1.44c1.69.75,3.3,1.71,5,2.36,3.26,1.22,6.61,2.2,9.86,3.44s6.36,2.8,9.62,4c2.55.93,5.23,1.49,7.84,2.22.57.15,1.11.37,1.68.5,1.15.27,2.34.39,3.45.76,1.51.5,3,1.18,4.44,1.77a2,2,0,0,0,.43,0c3.43.38,6.92.31,10.16,1.79a9.2,9.2,0,0,0,2.21.34c1,.17,2,.37,2.95.58,1.76.36,3.51.75,5.27,1.11a19.16,19.16,0,0,1,3.07.59,9.63,9.63,0,0,0,4.41,1,15,15,0,0,1,3.76.58c1.73.32,3.34,1.31,5.27.53a3.39,3.39,0,0,1,2.74.36,4.41,4.41,0,0,0,3.64,1,10.34,10.34,0,0,1,2.1-.39,12.51,12.51,0,0,1,2.84.43,9.66,9.66,0,0,1-.06,1.74c1-.14,2.26.06,2.95-.48,1.49-1.17,4.69-1.86,6.26-.9a.92.92,0,0,1,.44.68c-.12,1.45,1,1.51,1.51,1.73a8.47,8.47,0,0,1,1.5-1.67c1.89-1.1,3.87-.27,5.8-.07,1.27.13,1.68.95,1,2.22l5.91.65.08-.56-4.55-.69v-.69a42.25,42.25,0,0,1,4.31-.53c1.68,0,3.37.22,5.06.24q6.36.07,12.71,0c.94,0,1.88-.35,2.81-.28,1.23.08,2.43.56,3.65.58a6,6,0,0,0,3.23-.63,2.61,2.61,0,0,1,2.47-.27,19.75,19.75,0,0,0,4.15.44c.92,0,1.85-.21,2.78-.26.6,0,1.22.09,1.83.08,2.1,0,4.21-.17,6.31-.16,1.11,0,2.17.63,3.31-.2a5,5,0,0,1,2.32-.62c.33,0,.7.33,1.06.52a3.15,3.15,0,0,1,.33.22l.29-.64a9.75,9.75,0,0,0,1.92.55c.17,0,.39-.58.74-1.12-3.42-.09-6.45-.21-9.49-.24-3.66,0-7.31,0-11,0L343,644.53c-2.59,0-5.18,0-7.77,0-1.92,0-3.84.09-5.75.24-1.16.09-2.25.44-3.39-.35a4.56,4.56,0,0,0-2.29-.54c-1.8-.1-3.62,0-5.41-.13-1.42-.13-2.87-.93-4.22-.75-3.49.46-6.81-.52-10.19-.87a46.89,46.89,0,0,1-6.06-.76c-3.38-.81-6.94-.82-10.41-1.27-2-.26-3.93-.9-5.92-1s-3.63-1.72-5.7-1c-.12,0-.28-.07-.42-.11-4.35-1-8.7-2.11-13.06-3.12-.88-.2-1.84-.07-2.71-.31-2.66-.75-5.27-1.65-7.93-2.39-4.8-1.32-9.63-2.54-14.42-3.87-2.26-.62-4.49-1.38-6.71-2.12-3-1-5.93-2-8.89-3l0-.42c.44-.13.91-.46,1.29-.37a41.3,41.3,0,0,1,4.07,1.21c.79.26,1.52.72,2.31,1,1.29.38,2.62.62,3.92,1,1.66.45,3.31,1,5,1.42.6.17,1.22.29,1.82.46l5.38,1.61.19-.41c-.16-.21-.28-.54-.48-.61-2.88-1-5.78-1.92-8.66-2.9-2.65-.9-5.32-1.76-7.92-2.77-3.25-1.27-6.47-2.64-9.66-4-4.43-1.94-8.86-3.9-13.24-5.95-3.24-1.52-6.44-3.16-9.61-4.82-2.67-1.39-5.38-2.74-7.89-4.37-3.85-2.49-7.54-5.21-11.3-7.84a22.19,22.19,0,0,1-2.27-1.68c-1.23-1.12-2.36-2.34-3.56-3.48-2.81-2.67-5.67-5.28-8.44-8a25.64,25.64,0,0,1-2.56-3.2c-.87-1.19-1.25-2.66-2.48-3.69-.68-.58-.86-1.75-1.33-2.61-1.5-2.78-3.06-5.52-4.54-8.3a34,34,0,0,1-2-4.19c-.95-2.57-1.63-5.26-2.66-7.8a62.39,62.39,0,0,1-3.55-15c-.6-4.27-1.13-8.56-1.46-12.86-.44-5.72-.82-11.47-.88-17.21,0-3,.69-6,1.06-9,.14-1.12.13-2.27.37-3.37.34-1.56.88-3.07,1.28-4.62.47-1.82.74-3.69,1.34-5.46,1-2.93,2.16-5.8,3.27-8.69s2.24-5.8,3.43-8.68c.57-1.39,1.31-2.71,1.94-4.07s1.26-2.95,2-4.37,1.81-2.93,2.6-4.46c1.26-2.43,2.29-5,3.62-7.35,1.17-2.1,2.62-4,3.92-6.06,2-3.13,3.89-6.35,6-9.4s4.6-6.32,7.11-9.3c2.19-2.59,4.65-4.94,7-7.4a2.72,2.72,0,0,0,.29-.3,33.39,33.39,0,0,1,2.71-3.4c2.69-2.62,5.35-5.29,8.25-7.65,4.15-3.38,8.45-6.56,12.79-9.7a13.22,13.22,0,0,1,3.94-1.63,26,26,0,0,1,3.44-.57c-.57-1.21.4-1.66,1-1.89,1.65-.6,3.38-1,5.07-1.43l.5-.15-.95-.53a16.13,16.13,0,0,1,.65-1.52,2.09,2.09,0,0,1,.71-.79c1.74-1,4.08-1.22,4.54-3.8a2.91,2.91,0,0,0,3.84-1.14c.61-.9,1.18-1.83,1.75-2.77.08-.14.11-.45,0-.53-.78-.73,0-1.31.18-1.92.13-.4.41-.76.51-1.16.38-1.49.56-3.05,1.07-4.49,1.46-4.17,3-8.31,4.61-12.42,1.41-3.58,3-7.08,4.51-10.63.77-1.85,1.42-3.74,2.15-5.6.34-.85.73-1.68,1.13-2.5,1.26-2.53,2.55-5,3.81-7.57,1.41-2.82,2.69-5.7,4.22-8.45,1.21-2.2,2.78-4.2,4.08-6.35,1.85-3.07,3.8-4.1,6.52-3.2a7.39,7.39,0,0,1,1.9,1c2.75,2,5.51,3.93,8.18,6,5,3.9,10,7.88,15,11.84a34.8,34.8,0,0,1,7.26,8c1.09,1.64,2.36,3.16,3.54,4.74s2.28,3.17,3.47,4.72,2.57,3.42,4,5c1.83,2,3.89,3.88,5.66,6a3.81,3.81,0,0,0,2.78,1.5,22.85,22.85,0,0,0,9.16-1c5.26-1.74,10.82-2.58,16.25-3.78,1.61-.36,3.22-.67,4.83-1l-.08-.52-8.43,1-.08-.58,26.5-4.29-.77-.09v-.38c13.88-.7,27.76-1.43,41.67-1.31s27.83.51,41.75.78v-.53l-38.34-.75c4.56-1.49,56.66-.14,59,1.34H452.07c6.9.6,13.85.75,20.69,1.88l-.05.6L460,352.56a16.19,16.19,0,0,0,4.1.76c3.87.35,7.77.49,11.45,2,2.73,1.11,5.54,1.55,8.38.36,3.85-1.62,7.73-3.15,11.53-4.88,4.15-1.88,8.27-3.83,12.3-6,2.92-1.54,5.7-3.34,8.47-5.13,1.9-1.22,3.71-2.57,5.5-3.94,3-2.29,6-4.63,8.92-7,1.5-1.19,3-2.42,4.45-3.63l8.27-6.66c2.93-2.36,5.8-4.82,8.83-7.06,2.69-2,5.56-3.71,8.32-5.6,1.82-1.24,2.16-1.34,3.56.29,1.9,2.21,3.64,4.55,5.4,6.86,1.08,1.41,2.09,2.86,3.08,4.32,2.13,3.11,4.53,6.07,6.26,9.39A100.38,100.38,0,0,1,583.47,338c1,2.68,1.74,5.47,2.74,8.16,1.7,4.6,3.47,9.19,5.33,13.73,1,2.37,2.18,4.64,3.29,7,.12.25.29.49.44.74,1.85,3,4.68,4.77,7.69,6.25a5.39,5.39,0,0,0,3.69.25,2.23,2.23,0,0,1,2.31.23c3.7,2.57,7.35,5.19,11.12,7.64q5.24,3.39,10.66,6.44c2.31,1.31,4.83,2.23,7.16,3.49,2.82,1.51,5.55,3.19,8.32,4.79a1.64,1.64,0,0,0,.67.05,103.68,103.68,0,0,0-8.75-6.25c-4.79-3.07-9.69-6-14.46-9.09-2.92-1.91-5.73-4-8.48-6.14-1.91-1.51-3-4-5.58-4.78a2.68,2.68,0,0,1-1.25-1.14c-.18-.28,0-.77,0-1.17.35,0,.78,0,1,.15,1.17.9,2.27,1.89,3.43,2.81s2.17,1.64,3.39,2.56c0-.17-.13.22-.05.27A20.68,20.68,0,0,0,618,375.1c3.92,2.39,7.86,4.75,11.76,7.18,4.07,2.52,8.12,5.09,12.16,7.67a85.57,85.57,0,0,1,8.25,5.42c3.21,2.6,6.13,5.56,9.1,8.45,1.45,1.4,2.72,3,4.08,4.48l-.42.48a62.39,62.39,0,0,0-15-11.62l1,2.12-1.43.83c.63.5,1.13.88,1.61,1.27,1.68,1.4,3.38,2.78,5,4.22,1.82,1.58,3.16,3.62,4.77,5.37A35.26,35.26,0,0,1,665,421.14c.54,1.26.78,2.65,1.26,3.94a26.88,26.88,0,0,1,1.24,2.68,39.59,39.59,0,0,1,.6,4.37c.67,5.43,1.4,10.84,2,16.28.37,3.58.5,7.19.72,10.78.33,5.49.69,11,1,16.46.13,2.63.22,5.28.13,7.91-.15,4.18-.29,8.37-.77,12.52-.39,3.36-1.27,6.67-1.94,10-.22,1.11-.45,2.21-.71,3.31a16.93,16.93,0,0,1-1,3.59c-2,4.26-4.09,8.51-6.35,12.64s-4.68,8.53-7.95,12.19a6.5,6.5,0,0,0-1.76,2.53,12.17,12.17,0,0,1-2.9,5c-3.47,4.31-6.8,8.74-10.23,13.08-2.37,3-4.75,6-7.23,8.87-2.82,3.32-5.67,6.62-8.65,9.78s-6.1,6.63-10,9a1.07,1.07,0,0,0-.4.39c-1,2-2.89,3.15-5.12,4.29l.89-1.2-12.66,7.69,1.62,1.34c-2.08,1.23-4,2.34-5.88,3.47a8.76,8.76,0,0,0-1.17.82,30,30,0,0,1-10.09,5.85,9.39,9.39,0,0,0-2.06,1.22,46.58,46.58,0,0,1-4.46,3c-3.92,2-7.93,3.82-11.91,5.7-.62.3-1.29.5-1.93.75l-.15-.35,2.08-1-.12-.2-10.73,4.28.12.33,2.58-.79.13.38-8.88,3.46-.15-.36,4.9-2.1-.15-.32-9.29,3.55.13.35,3.39-1.26.19.49-7.49,2.7a3.14,3.14,0,0,0-3.95.77c-1.6,1.89-3.94,2-6,2.77-1.69.62-3.54.8-5.25,1.37-2.79.94-5.5,2.1-8.29,3.07-1.67.58-3.41,1-5.12,1.43-.1,0-.24-.06-.44-.11a2.75,2.75,0,0,0,.42-.48,2.93,2.93,0,0,0,.2-.59l-.21-.39c-4.53,1.92-9.51,2.34-14.06,4.4.53,1.08.83,1.73,2.12,1.36,4.08-1.17,8.22-2.15,12.33-3.21,1.72-.44,3.44-.84,5.13-1.36,3.25-1,6.48-2.09,9.72-3.11,3.42-1.06,6.87-2,10.26-3.16,3.9-1.33,7.74-2.85,11.62-4.23a17.48,17.48,0,0,1,2.53-.54,2.1,2.1,0,0,1,1-.82c4.83-2,9.7-3.83,14.47-5.9,4.43-1.92,8.8-4,13.12-6.13s8.36-4.44,12.61-6.54c.94-.46,1.89-1.71,3.23-.71l0,0c-1.89,1.17-3.74,2.41-5.67,3.49-3.37,1.88-6.8,3.66-10.21,5.48l-4.09,1.79.28.53,3.78-2.36c1.41-.51,2.86-1,4.23-1.55,1.62-.7,3.15-1.59,4.77-2.28.94-.41,2-.51,3-.91a29.94,29.94,0,0,0,2.86-1.62c3.56-2,7.13-4.08,10.68-6.16.83-.48,1.54-1.47,2.38-1.57,1.88-.23,2.69-1.75,4-2.7,2.59-1.95,5.07-4.06,7.66-6,.85-.64,2-.87,2.85-1.49,2.15-1.57,4.29-3.17,6.3-4.92,3.57-3.09,7.18-6.16,10.5-9.5,2.86-2.88,5.39-6.09,8-9.22,2.13-2.58,4.11-5.27,6.18-7.89,1.12-1.42,2.34-2.77,3.44-4.2,1.83-2.37,3.64-4.76,5.37-7.2,1.55-2.18,3-4.46,4.49-6.67,1.21-1.76,2.61-3.41,3.72-5.24,2.1-3.46,4.09-7,6.06-10.54,1.51-2.74,2.93-5.53,4.39-8.3a28.56,28.56,0,0,0,1.76-3.55c.72-2.08,1.07-4.29,1.87-6.33,1.91-4.87,2.21-10.05,3-15.12a34.39,34.39,0,0,0,.24-5.47c0-2.68,0-5.36-.18-8-.09-1.54-.54-3.06-.64-4.59-.16-2.33-.05-4.69-.26-7-.33-3.74-.85-7.46-1.25-11.19-.16-1.6-.27-3.2-.27-4.81,0-.38.54-.76.82-1.14,1.08,7.36,2,14.5,2.46,21.66s.27,14.22.38,21.33l.59.08a5.54,5.54,0,0,0,.56-1.51c.23-2.58.37-5.17.57-7.76.13-1.65.49-3.29.48-4.93,0-4.76-.16-9.53-.36-14.28-.12-3.12-.46-6.23-.66-9.35,0-.75.16-1.52.08-2.26-.19-1.75-.52-3.48-.69-5.23a5.17,5.17,0,0,1,.34-1.64,4.69,4.69,0,0,1-.5-2.31c0-.21.57-.41,1.12-.78a406,406,0,0,1,2.11,44.51c.42-.18.82-.43.86-.72a24.62,24.62,0,0,0,.26-3.73c-.22-7.68-.49-15.35-.75-23,0-1.66-.08-3.33-.12-5a13.06,13.06,0,0,0-.17-3.72,11.23,11.23,0,0,1-.52-4c0-1.76,0-3.54-.11-5.29-.18-2.09-.62-4.16-.82-6.26-.48-5.06-.42-10.19-2.15-15.08-.35-1,.12-1.53,1.27-1.57l-.11-.38-1.41-.18-3.44-8.23,1,.39c-3.55-9.1-11.47-14.69-18.32-21.21l.47-.48,8,6.3a1.19,1.19,0,0,0-.39-1c-2.94-2.58-5.77-5.33-8.89-7.68-3.67-2.77-7.57-5.21-11.4-7.74-4.64-3.07-9.31-6.06-13.94-9.13-.94-.62-1.73-1.47-2.65-2.14-3.12-2.28-6.26-4.52-9.4-6.77-2-1.42-3.94-2.82-5.89-4.21l.54-.33c-.53-1.54-1.94-1.66-3.14-1.95-1.63-.38-3-1-3.6-2.7-1.53-4-3.18-7.87-4.67-11.84-1.05-2.81-1.8-5.73-2.91-8.51-1.4-3.53-3.09-6.94-4.55-10.45a49.7,49.7,0,0,0-5.19-9.32c-2-2.87-3.66-6-5.54-9-1.31-2.05-2.73-4-4.11-6-2.1-3.07-4.37-6.05-6.28-9.24-1.61-2.66-4-3.69-6.81-4.16a2.29,2.29,0,0,1-1.22-.58,1.55,1.55,0,0,0-2.48-.2c-.69.54-1.68,1.32-2.33,1.16-1.74-.42-2.53.27-3,1.79h-1.74c.25,1.68-.33,3.66,1.72,4.56ZM250.91,430.23l.17.46a5.87,5.87,0,0,0,1.11,0,36.74,36.74,0,0,1,5-.86c5.23-.13,10.48-.23,15.7-.05,4.42.15,8.82.72,13.23,1.08,3,.25,5.94.39,8.9.72,1.26.13,2.46.75,3.72.92,5.38.72,10.78,1.29,16.15,2,3.27.45,6.52,1.07,9.78,1.63,1,.18,2.08.41,3.12.61l0,.66a5.6,5.6,0,0,1-1.8.34c-3.52-.47-7-1.1-10.54-1.55-9.15-1.19-18.31-2.4-27.48-3.45-6.59-.76-13.2-1.3-19.81-1.88q-5-.45-10.06-.67a9.75,9.75,0,0,0-2.5.59l2,1.26c-3.09.53-6.06-.41-8.87,1.82l8.94,1.69,0-.24-.47.18a4.49,4.49,0,0,0,1.63,0,58.89,58.89,0,0,1,6-.9,74,74,0,0,1,8,.12q5.55.33,11.09.92,6.74.69,13.46,1.58c4.36.59,8.71,1.31,13.06,2,.26,0,.49.21.74.26,1,.21,1.93.43,2.9.58.39.06,1-.21,1.17,0,1,1.08,2.33,1.15,3.65,1.27a6.67,6.67,0,0,1,1.24.41l-.07.47a20.65,20.65,0,0,1-2.61,0c-4-.49-8-1-12-1.56l-20.88-2.68c-5.19-.66-10.37-1.61-15.58-1.88-5.81-.29-11.65,0-17.47.14a15.79,15.79,0,0,0-3.47.88l0,.56c.94.82,2.26,1.47,2.71,2.5a2,2,0,0,0,2.18,1.29c1.72,0,3.43-.15,5.15-.24a2.37,2.37,0,0,0,1.5.83c5.33.3,10.67.41,16,.83,6.33.51,12.64,1.22,18.94,2,5.3.61,10.57,1.39,15.85,2.08,1.06.14,2.2.16,1.83,1.83l3-.42c-2.32,2-4.65,3.83-7,5.58-3.43,2.51-7,4.89-10.32,7.5-2.93,2.29-5.56,4.95-8.5,7.21-3.7,2.86-7.46,5.67-11.4,8.18-5.94,3.78-12,7.33-18.12,10.88-.93.54-1.32.92-.53,1.92l-5.36,2.2.16.46,4.12-1.24.16.44-4,1.92.19.33,2.45.57L252.93,497c.23.24.42.35.47.51.82,2.38,2,3.09,4.42,2.49.93-.24,1.84-.56,2.76-.84l1.81-.56-.6,2.93a5.31,5.31,0,0,0,1.06-.27c.95-.45,1.86-1,2.83-1.4a23.15,23.15,0,0,0,2.95-1c2.5-1.47,4.92-3.09,7.38-4.65,3.84-2.44,7.77-4.76,11.5-7.34,4.92-3.41,9.7-7,14.51-10.55,2.89-2.13,5.7-4.39,8.61-6.49,4.58-3.31,9.17-6.59,13.85-9.76,3.2-2.17,6.55-4.14,9.84-6.18,1.43-.88,2.89-1.71,4.34-2.57l-.18-.53-3.08.36-.15-.4c.38-.31.74-.65,1.14-.92,2.81-1.92,5.64-3.81,8.42-5.78a1.4,1.4,0,0,0,.45-1.27c-.11-.29-.79-.46-1.23-.51a4.07,4.07,0,0,0-1.26.24l-.1-.23,1.66-1.43-.09-.36a5.81,5.81,0,0,0-1.77.41c-4.43,2.76-8.83,5.58-13.25,8.35-1.28.81-2.61,1.54-3.92,2.3l-.42-.58.83-.51,16.17-10.2c.83-.53,1.11-2.29.34-2.56a25.79,25.79,0,0,1-2.5-1.52c-1.41-.67-3.15-.63-4.75-.84-.61-.09-1.25.05-1.84-.08-3.13-.69-6.22-1.67-9.39-2.1-11.34-1.54-22.71-2.9-34.06-4.34a196.53,196.53,0,0,0-32.53-1.69C254.39,427.23,253.19,429.58,250.91,430.23Zm253.29-4.09-.19-.3c2.84-1.92,5.72-3.81,8.52-5.8a38.21,38.21,0,0,0,3.57-3c.18-.16.11-.57.16-.87-.26,0-.58-.08-.76,0-1,.62-1.84,1.3-2.78,1.94-3.33,2.25-6.65,4.51-10,6.72-3.79,2.5-7.58,5-11.41,7.42a16.4,16.4,0,0,1-2.15.64c-.5.21-1.27.65-1.27,1a3.2,3.2,0,0,0,.7,2.26,12.58,12.58,0,0,0,3.49,1.86,91.85,91.85,0,0,0,9.06,3.19c4.21,1.13,8.53,1.89,12.79,2.86,6.6,1.5,13.18,3.11,19.8,4.56s13.15,2.75,19.74,4.07c2,.39,4,.61,5.94.91l-.06.51c-3.51-.34-7.07-.39-10.51-1.07-7.63-1.51-15.21-3.28-22.8-5-7.4-1.69-14.77-3.5-22.17-5.23-2.79-.65-5.58-1.4-8.41-1.78-3.35-.46-6.63-1-9.57-2.75-.7-.42-1.4-.85-2.13-1.21s-1.29-.11-1.26.84c.08,2.7.08,2.7-2.69,3a3,3,0,0,0-.42.06c-.81.15-1.12.46-.52,1.25.81,1.08,1.92,2,1.9,3.58,0,.31.5.7.85.91,1.89,1.13,3.76,2.29,5.72,3.29,4.47,2.3,9.45,2.84,14.25,4,5.61,1.33,11.26,2.45,16.89,3.68,6.75,1.48,13.49,3,20.25,4.45,4.14.88,8.29,1.71,12.45,2.39,3,.49,6.1.71,9.15,1.07.84.09,1.89-.06,1.73,1.34,4.22.57,4.22.57,5.15-.11l-2.82-.4a1.7,1.7,0,0,1,1.32-.27c1.85.48,3.52-.21,5.3-.49a5.89,5.89,0,0,0,4.38-2.59c.54-.73,2-.8,3-1.16v-1.5h-1.86c1.36-.49,3.13,0,3.82-2l-2.86-.73,0-.37,3.43-.38c-.37-1.39-1.06-1.72-2-1.12s-1.24.28-1.73-.57l2-.34,0-.33-2.54.26c-.79-1-1.28-2.3-2.12-2.59-1.8-.62-3.69-1.37-5.72-.85a5.31,5.31,0,0,1-1.84.25c-4.21-.43-8.45-.68-12.6-1.44-5.56-1-11.07-2.35-16.56-3.72-8-2-16-4.13-24-6.21a2.27,2.27,0,0,1-.63-.34,17.31,17.31,0,0,0-2-1.27c-.83-.36-1.75-.51-2.61-.81s-.95-.77-.22-1.35c.3-.24.62-.45.91-.71,3-2.62,7.25-3.63,9.57-7.32.75-1.18,2.55-1.65,3.69-2.65s2.49-1,3.64-1.61c2.26-1.24,4.42-2.66,6.6-4,2-1.26,3.9-2.61,5.89-3.84,2.94-1.8,5.89-3.57,8.88-5.28,2.35-1.35,4.73-2.61,7.14-3.85,1.53-.78,3.12-1.43,4.68-2.16.38-.17,1-.45,1-.65-.08-1.33.94-1.6,1.78-2.09,2-1.17,2.06-1.33,1.17-3.13l1-.72c-.09-.47-.16-.92-.24-1.35l1.47-.55,0-.38-4.21-1.41,1.55-1c-1-.5-2.12-1.08-3.24-1.54s-2.27-1-3.59-.35c-2.35,1.09-4.79,2-7.12,3.11-2.57,1.25-5.1,2.6-7.54,4.09a20.72,20.72,0,0,0-2.87,2.69,2.79,2.79,0,0,1-1.18.71,6.33,6.33,0,0,0-4.37,2.91c-1.28-.2-9.42,5-9.9,6.47a15.29,15.29,0,0,1,2.38-1.21,18.94,18.94,0,0,1,2.91-.4A275.91,275.91,0,0,1,504.2,426.14Zm-163,169.37c2.11-1.25,2.11-1.25,3.46.85a6.72,6.72,0,0,0,.5.69c1.51,1.76,3,3.56,4.56,5.25a48.42,48.42,0,0,0,4,3.82,20.11,20.11,0,0,0,2.93,1.79c.62.35,1.3.62,1.93,1,.33.18.59.51.93.63,3.34,1.18,6.68,2.32,10,3.49a4.88,4.88,0,0,1,.95.57,4.47,4.47,0,0,0,1.09.7c1.92.51,3.85,1,5.8,1.4a22.33,22.33,0,0,0,12.76-1.2h-2.29c1.23-1,42.38-9.37,44.2-9-1.9.9-3.49,1.78-5.42,1.84a28.58,28.58,0,0,0-4.24.41c-1.5.28-3,.79-4.44,1.17-2,.49-3.92.94-5.88,1.42l.05.36a11.41,11.41,0,0,0,1.94,0c5.8-1,11.47-2.72,17.42-2.91a3.1,3.1,0,0,0,2.43-1.44,6,6,0,0,1,2.77-3.13,2.93,2.93,0,0,0,.25-4l.82-1.31c-.95-.1-2,.09-2.43-.35s-.08-1.47-.08-2.27a4.63,4.63,0,0,1-1.66.09c-2.34-1-4.6-.44-6.9.11-2.76.66-5.51,1.37-8.3,1.89-7.12,1.32-14.27,2.56-21.41,3.79-2.17.37-4.36.59-6.54.87-3,.4-6.08.86-9.13,1.15a9.06,9.06,0,0,1-3.82-.25c-4.63-1.67-9.37-3.08-13.09-6.66-2.1-2-4.07-3.92-4.44-7.08a4,4,0,0,1,1.6-4c.34-.26.7-.5,1-.77,4.4-3.56,9.15-6.18,15-6.92a66.06,66.06,0,0,1,9.82-.83c.44,0,1.28-.6,1.28-.93,0-2.29.63-3.37,2.74-4.13.33-.11.63-.3,1.3-.62l-1.34-.48c.37-1.69,1.06-3.32,1-4.94a70.3,70.3,0,0,0-.94-9.71c-.22-1.35.17-3.53-2.36-3.52-.06,0-.15-.12-.19-.2-.51-1-1.47-1-2.33-1.37-2.68-1.22-4.39.69-6.41,1.47a3,3,0,0,0-1.28,2,29.67,29.67,0,0,0-.43,4.71c0,.84.11,1.89-.89,1.93-1.2.06-.66-1.13-.75-1.79-.17-1.33-.24-2.66-.39-4.34-.57.53-1,.72-1,.91,0,1.72-.84,3.1-1.56,4.59s-.77,3-2.68,3.29a8.22,8.22,0,0,0-1.73.69c-.05,0,0,.15-.07.25l1,.09c-4.79,2.48-9.45,5-13.94,7.83-3.56,2.23-7.09,4.59-9.25,8.42a2,2,0,0,1-.7.71,4.73,4.73,0,0,0-2.3,4.48,3,3,0,0,1-2.18,3c-1,.33-1.53.8-1.67,1.63a11.63,11.63,0,0,0,.13,2.65l1.65-.51.35.35c-.3.33-.56.88-.92.95C340.54,594.28,340.84,594.8,341.2,595.51Zm100-168.85.09-.22c-.8-.39-1.58-.81-2.41-1.14a12.22,12.22,0,0,0-3.36-1.17c-3-.27-6-.37-9.07-.4-8.17-.07-16.34-.18-24.51-.07A61.92,61.92,0,0,0,377.59,429c-.93.4-1.32.78-.61,1.69l-1.8.57a22.33,22.33,0,0,0-3.27,1.07c-1.26.64-1.25,1.65-.16,2.29a4.82,4.82,0,0,1,.83.8,5.45,5.45,0,0,1-.8.73c-.87.5-1.76.94-2.64,1.41l.13.45c1,0,2.05.05,3.07,0s2-.24,3.05-.37l.07.41-4.72,1.26.11.38,3.31-.59.06.3-3.54.88c.61,1.4,1.21,1.5,2.37,1.05,2.67-1,5.39-1.87,8.09-2.8l.16.46-6.68,2.33.15.49,7.28-1.76,0,.1L378,441.57l.07.31,1.31.21c0,.28-.07.49-.06.44l20.91-3.81,0-.26-14.29,1.83a32.14,32.14,0,0,1,6.23-1.37c5.26-.41,10.53-.66,15.8-.89,6.74-.3,13.42.58,20.12,1.15a49.45,49.45,0,0,0,5.71,0c1,0,2-.28,3-.34,3.29-.18,7.14-3.4,7.79-6.6.11-.55,0-1.15.13-1.7.4-1.69-.18-2.55-1.82-2.89A5.9,5.9,0,0,1,441.17,426.66Zm-61,109L380,536a21.87,21.87,0,0,0,2.43,0,21.1,21.1,0,0,0,3.06-.55,8,8,0,0,0,1.93-.81c1.6-.92,3.87-1.54,4.54-2.92.75-1.55,1.91-2.14,3-3.07,1.27-1.12,2.05-4.65,1.41-6.09a13.15,13.15,0,0,1-.49-1.82c-.86-.25-2-.56-3.13-.91-.91-.29-1.77-.69-2.69-.94-3.54-1-6.74.49-10,1.43l.15,2,1.1.37a4.62,4.62,0,0,1-2.92,2c-.95.24-2.9-.13-2.08,2.08,0,.14-.35.54-.61.68-.46.24-1.1.26-1.45.59s-1.13,1.19-1,1.64a8.81,8.81,0,0,0,1.42,2.57c.87,1.3,3,.95,3.59,2.69,0,0,.09,0,.13,0Zm66.09,106.27,0-.37a11.78,11.78,0,0,0-2.87-.61c-2.81.1-5.62.37-8.43.58-4.49.34-9,.72-13.49,1-9.11.6-18.23,1.11-27.33,1.8-.89.06-2.51-.25-2.73,1.64C409.77,645.11,428.06,644.35,446.22,641.94ZM681.11,516.83l-.63-.33c-1.28,2.2-2.55,4.41-3.85,6.59a23.25,23.25,0,0,1-2.67,4.18c-.87.92-1.74,1.79-2.55,2.8-1.19,1.49-.63,3.09-.88,4.65a2.8,2.8,0,0,0,.93-.91c2.34-3.76,4.69-7.51,7-11.3a26.54,26.54,0,0,0,1.16-2.61C680.08,518.87,680.6,517.85,681.11,516.83ZM548.34,616.72l-.22-.7a11,11,0,0,0-1.43.31q-2.9,1.08-5.75,2.2c-2.09.83-4.13,1.76-6.24,2.52-2.34.84-4.73,1.56-7.1,2.31-2.64.83-5.29,1.63-7.93,2.47-.69.22-1.34.54-2,.82l.17.39C528.16,624.06,538.21,620.29,548.34,616.72ZM259.05,465.89c-1.93-.05-3,.52-3.39,2.19a4.26,4.26,0,0,0,.35,2.47c.11.23,1.21.3,1.68.07a9.92,9.92,0,0,0,2.7-1.86,2.45,2.45,0,0,0,.73-2c-.17-.46-1.25-.59-1.93-.86A.32.32,0,0,0,259.05,465.89Zm429.52-28.28c-.67-4.21.3-8.69-2-12.63A48.32,48.32,0,0,0,688.57,437.61ZM225.5,636.8l-.15.44c1.49,1.71,8.58,3.64,10.1,2.45Zm348-28.89-.2-.45c-2,.08-9.19,3.7-9.61,5.2Zm-164.86,3.7c-1.38-.69-12.09,1-12.9,2.12ZM546.45,394.13a2,2,0,0,0-2.76.15c-.87.84-1.6,1.83-2.51,2.89,3.67-.66,3.77-.82,3.5-2ZM663.63,543.7l.6.46,4.62-6.55-.56-.41ZM475.34,312.46c-.65,1.93.35,2.73,1.61,2.82a1.12,1.12,0,0,0,.89-.62C478,313.53,476.67,312.33,475.34,312.46Zm-14,327.5,0-.61-9.82,1.56.06.42Zm15.29,4.84-.19-.73-6.67,1.61.16.62Zm7-313.54c-.53.71-1,1-1,1.33.1,1,.54,1.82,1.7,1.7.38,0,.71-.54,1.07-.82ZM463.4,639.74l7.11-1.31-.13-.65A23,23,0,0,0,463.4,639.74Zm-.3-357.19a2.48,2.48,0,0,0,3.63-.52A2.56,2.56,0,0,0,463.1,282.55ZM577.2,604.18l-.12-.28-6.56,3,.23.47ZM248.06,432.55l5.5-1-.08-.4C251.73,431.9,249.54,430.48,248.06,432.55Zm441.73,25.64h.47v-4.9C689,454.91,689.87,456.56,689.79,458.19ZM592.31,597l.26.41,4.79-3.22-.26-.39ZM246.61,628.9l-.1.38,3.58,1C249.79,629,248.25,628.49,246.61,628.9ZM384,644.76c2,1.27,2,1.27,3-.2ZM519.51,355.38l-.7.66,1.06,1.42,1-1Zm-94,116.8V472h-4.18l.05.52Zm257,39.68-.63.06c.08.58.15,1.17.22,1.75l.41,0Z" transform="translate(-110.72 -254.69)"/><path d="M520.62,319.55a14.91,14.91,0,0,0,2.56-1.37c5-3.94,9.88-7.95,14.85-11.91,2.69-2.14,5.43-4.23,8.18-6.31,2.13-1.6,4.39-3,6.42-4.75,1.37-1.15,3.16-2,3.82-3.84a.54.54,0,0,1,.09-.12l2.31-3c.77-.61,2-.15,2.73.94.48.74.77,2,2.09,1a5.74,5.74,0,0,0,.16,2.26,28.52,28.52,0,0,0,2.46,3.69c1.73,2.38,3.51,4.72,5.28,7.08L572,303a5.71,5.71,0,0,0-.55-1.5c-2.13-3-4.33-5.91-6.46-8.89a22.47,22.47,0,0,1-1.34-2.46c-2-.9-1.47-2.88-1.72-4.56h1.74c.44-1.52,1.23-2.21,3-1.79.65.16,1.64-.62,2.33-1.16a1.55,1.55,0,0,1,2.48.2,2.29,2.29,0,0,0,1.22.58c2.84.47,5.2,1.5,6.81,4.16,1.91,3.19,4.18,6.17,6.28,9.24,1.38,2,2.8,4,4.11,6,1.88,3,3.52,6.1,5.54,9a49.7,49.7,0,0,1,5.19,9.32c1.46,3.51,3.15,6.92,4.55,10.45,1.11,2.78,1.86,5.7,2.91,8.51,1.49,4,3.14,7.88,4.67,11.84.65,1.7,2,2.32,3.6,2.7,1.2.29,2.61.41,3.14,1.95l-.54.33c1.95,1.39,3.92,2.79,5.89,4.21,3.14,2.25,6.28,4.49,9.4,6.77.92.67,1.71,1.52,2.65,2.14,4.63,3.07,9.3,6.06,13.94,9.13,3.83,2.53,7.73,5,11.4,7.74,3.12,2.35,5.95,5.1,8.89,7.68a1.19,1.19,0,0,1,.39,1l-8-6.3-.47.48c6.85,6.52,14.77,12.11,18.32,21.21l-1-.39,3.44,8.23,1.41.18.11.38c-1.15,0-1.62.56-1.27,1.57,1.73,4.89,1.67,10,2.15,15.08.2,2.1.64,4.17.82,6.26.15,1.75.12,3.53.11,5.29a11.23,11.23,0,0,0,.52,4,13.06,13.06,0,0,1,.17,3.72c0,1.66.07,3.33.12,5,.26,7.68.53,15.35.75,23a24.62,24.62,0,0,1-.26,3.73c0,.29-.44.54-.86.72a406,406,0,0,0-2.11-44.51c-.55.37-1.11.57-1.12.78a4.69,4.69,0,0,0,.5,2.31,5.17,5.17,0,0,0-.34,1.64c.17,1.75.5,3.48.69,5.23.08.74-.13,1.51-.08,2.26.2,3.12.54,6.23.66,9.35.2,4.75.32,9.52.36,14.28,0,1.64-.35,3.28-.48,4.93-.2,2.59-.34,5.18-.57,7.76a5.54,5.54,0,0,1-.56,1.51l-.59-.08c-.11-7.11,0-14.24-.38-21.33s-1.38-14.3-2.46-21.66c-.28.38-.82.76-.82,1.14,0,1.61.11,3.21.27,4.81.4,3.73.92,7.45,1.25,11.19.21,2.32.1,4.68.26,7,.1,1.53.55,3,.64,4.59.15,2.66.18,5.34.18,8a34.39,34.39,0,0,1-.24,5.47c-.82,5.07-1.12,10.25-3,15.12-.8,2-1.15,4.25-1.87,6.33a28.56,28.56,0,0,1-1.76,3.55c-1.46,2.77-2.88,5.56-4.39,8.3-2,3.54-4,7.08-6.06,10.54-1.11,1.83-2.51,3.48-3.72,5.24-1.52,2.21-2.94,4.49-4.49,6.67-1.73,2.44-3.54,4.83-5.37,7.2-1.1,1.43-2.32,2.78-3.44,4.2-2.07,2.62-4,5.31-6.18,7.89-2.58,3.13-5.11,6.34-8,9.22-3.32,3.34-6.93,6.41-10.5,9.5-2,1.75-4.15,3.35-6.3,4.92-.86.62-2,.85-2.85,1.49-2.59,2-5.07,4.07-7.66,6-1.26,1-2.07,2.47-4,2.7-.84.1-1.55,1.09-2.38,1.57-3.55,2.08-7.12,4.11-10.68,6.16a29.94,29.94,0,0,1-2.86,1.62c-.94.4-2,.5-3,.91-1.62.69-3.15,1.58-4.77,2.28-1.37.6-2.82,1-4.23,1.55l0,0c3.41-1.82,6.84-3.6,10.21-5.48,1.93-1.08,3.78-2.32,5.67-3.49a11.9,11.9,0,0,0,2.25-.86c2.46-1.57,4.84-3.25,7.29-4.84a101.66,101.66,0,0,0,13.79-10.46c3-2.8,5.91-5.73,8.87-8.59,1.14-1.1,2.28-2.18,3.47-3.21.2-.18.64-.09,1-.13.13.26.23.21.27.14.32-.71,1.32-1,1-2.17-.07-.28,1.35-.83,1.92-1.42,2-2.09,4-4.25,5.91-6.41a3.3,3.3,0,0,0,.84-1.32c.25-1.07.33-2.17.45-3-2.21,2.42-4.65,5.12-7.11,7.8-3.69,4-7.27,8.14-11.1,12-2.82,2.84-5.9,5.44-9,8-2.83,2.34-5.77,4.54-8.74,6.68-2.12,1.53-4.36,2.89-6.59,4.27-1.43.89-2.94,1.66-4.37,2.55-.17.1-.08.63-.1,1-1.34-1-2.29.25-3.23.71-4.25,2.1-8.37,4.44-12.61,6.54s-8.69,4.21-13.12,6.13c-4.77,2.07-9.64,3.93-14.47,5.9a2.1,2.1,0,0,0-1,.82,17.48,17.48,0,0,0-2.53.54c-3.88,1.38-7.72,2.9-11.62,4.23-3.39,1.15-6.84,2.1-10.26,3.16-3.24,1-6.47,2.11-9.72,3.11-1.69.52-3.41.92-5.13,1.36-4.11,1.06-8.25,2-12.33,3.21-1.29.37-1.59-.28-2.12-1.36,4.55-2.06,9.53-2.48,14.06-4.4l.21.39a2.93,2.93,0,0,1-.2.59,2.75,2.75,0,0,1-.42.48c.2,0,.34.14.44.11,1.71-.46,3.45-.85,5.12-1.43,2.79-1,5.5-2.13,8.29-3.07,1.71-.57,3.56-.75,5.25-1.37,2.06-.75,4.4-.88,6-2.77a3.14,3.14,0,0,1,3.95-.77l7.49-2.7-.19-.49-3.39,1.26-.13-.35,9.29-3.55.15.32-4.9,2.1.15.36,8.88-3.46-.13-.38-2.58.79-.12-.33,10.73-4.28.12.2-2.08,1,.15.35c.64-.25,1.31-.45,1.93-.75,4-1.88,8-3.7,11.91-5.7a46.58,46.58,0,0,0,4.46-3,9.39,9.39,0,0,1,2.06-1.22,30,30,0,0,0,10.09-5.85,8.76,8.76,0,0,1,1.17-.82c1.89-1.13,3.8-2.24,5.88-3.47l-1.62-1.34,12.66-7.69-.89,1.2c2.23-1.14,4.07-2.24,5.12-4.29a1.07,1.07,0,0,1,.4-.39c3.91-2.37,6.94-5.72,10-9s5.83-6.46,8.65-9.78c2.48-2.9,4.86-5.88,7.23-8.87,3.43-4.34,6.76-8.77,10.23-13.08a12.17,12.17,0,0,0,2.9-5,6.5,6.5,0,0,1,1.76-2.53c3.27-3.66,5.62-7.93,7.95-12.19s4.31-8.38,6.35-12.64a16.93,16.93,0,0,0,1-3.59c.26-1.1.49-2.2.71-3.31.67-3.33,1.55-6.64,1.94-10,.48-4.15.62-8.34.77-12.52.09-2.63,0-5.28-.13-7.91-.28-5.49-.64-11-1-16.46-.22-3.59-.35-7.2-.72-10.78-.56-5.44-1.29-10.85-2-16.28a39.59,39.59,0,0,0-.6-4.37,26.88,26.88,0,0,0-1.24-2.68c-.48-1.29-.72-2.68-1.26-3.94A35.26,35.26,0,0,0,658.82,411c-1.61-1.75-3-3.79-4.77-5.37-1.66-1.44-3.36-2.82-5-4.22-.48-.39-1-.77-1.61-1.27l1.43-.83-1-2.12a62.39,62.39,0,0,1,15,11.62l.42-.48c-1.36-1.5-2.63-3.08-4.08-4.48-3-2.89-5.89-5.85-9.1-8.45a85.57,85.57,0,0,0-8.25-5.42c-4-2.58-8.09-5.15-12.16-7.67-3.9-2.43-7.84-4.79-11.76-7.18a20.68,20.68,0,0,1-1.83-1.21c-.08-.05.09-.44.05-.27-1.22-.92-2.32-1.71-3.39-2.56s-2.26-1.91-3.43-2.81c-.24-.18-.67-.11-1-.15,0,.4-.16.89,0,1.17a2.68,2.68,0,0,0,1.25,1.14c2.62.75,3.67,3.27,5.58,4.78,2.75,2.15,5.56,4.23,8.48,6.14,4.77,3.11,9.67,6,14.46,9.09a103.68,103.68,0,0,1,8.75,6.25,1.64,1.64,0,0,1-.67-.05c-2.77-1.6-5.5-3.28-8.32-4.79-2.33-1.26-4.85-2.18-7.16-3.49q-5.41-3.06-10.66-6.44c-3.77-2.45-7.42-5.07-11.12-7.64a2.23,2.23,0,0,0-2.31-.23,5.39,5.39,0,0,1-3.69-.25c-3-1.48-5.84-3.3-7.69-6.25-.15-.25-.32-.49-.44-.74-1.11-2.31-2.33-4.58-3.29-7-1.86-4.54-3.63-9.13-5.33-13.73-1-2.69-1.73-5.48-2.74-8.16a100.38,100.38,0,0,0-4.61-11.24c-1.73-3.32-4.13-6.28-6.26-9.39-1-1.46-2-2.91-3.08-4.32-1.76-2.31-3.5-4.65-5.4-6.86-1.4-1.63-1.74-1.53-3.56-.29-2.76,1.89-5.63,3.61-8.32,5.6-3,2.24-5.9,4.7-8.83,7.06l-8.27,6.66c-1.49,1.21-2.95,2.44-4.45,3.63-3,2.34-5.92,4.68-8.92,7-1.79,1.37-3.6,2.72-5.5,3.94-2.77,1.79-5.55,3.59-8.47,5.13-4,2.12-8.15,4.07-12.3,6-3.8,1.73-7.68,3.26-11.53,4.88-2.84,1.19-5.65.75-8.38-.36-3.68-1.5-7.58-1.64-11.45-2a16.19,16.19,0,0,1-4.1-.76l12.67.65.05-.6c-6.84-1.13-13.79-1.28-20.69-1.88h18.67c-2.33-1.48-54.43-2.83-59-1.34l38.34.75v.53c-13.92-.27-27.83-.66-41.75-.78s-27.79.61-41.67,1.31v.38l.77.09L340.93,356l.08.58,8.43-1,.08.52c-1.61.33-3.22.64-4.83,1-5.43,1.2-11,2-16.25,3.78a22.85,22.85,0,0,1-9.16,1,3.81,3.81,0,0,1-2.78-1.5c-1.77-2.08-3.83-3.92-5.66-6-1.42-1.58-2.69-3.31-4-5s-2.31-3.15-3.47-4.72-2.45-3.1-3.54-4.74a34.8,34.8,0,0,0-7.26-8c-5-4-9.94-7.94-15-11.84-2.67-2.08-5.43-4-8.18-6a7.39,7.39,0,0,0-1.9-1c-2.72-.9-4.67.13-6.52,3.2-1.3,2.15-2.87,4.15-4.08,6.35-1.53,2.75-2.81,5.63-4.22,8.45-1.26,2.53-2.55,5-3.81,7.57-.4.82-.79,1.65-1.13,2.5-.73,1.86-1.38,3.75-2.15,5.6-1.48,3.55-3.1,7.05-4.51,10.63-1.63,4.11-3.15,8.25-4.61,12.42-.51,1.44-.69,3-1.07,4.49-.1.4-.38.76-.51,1.16-.21.61-1,1.19-.18,1.92.09.08.06.39,0,.53-.57.94-1.14,1.87-1.75,2.77a2.91,2.91,0,0,1-3.84,1.14c-.46,2.58-2.8,2.8-4.54,3.8a2.09,2.09,0,0,0-.71.79,16.13,16.13,0,0,0-.65,1.52l.95.53-.5.15c-1.69.46-3.42.83-5.07,1.43-.64.23-1.61.68-1,1.89a26,26,0,0,0-3.44.57,13.22,13.22,0,0,0-3.94,1.63c-4.34,3.14-8.64,6.32-12.79,9.7-2.9,2.36-5.56,5-8.25,7.65a33.39,33.39,0,0,0-2.71,3.4,2.72,2.72,0,0,1-.29.3c-2.34,2.46-4.8,4.81-7,7.4-2.51,3-4.87,6.11-7.11,9.3s-4,6.27-6,9.4c-1.3,2-2.75,4-3.92,6.06-1.33,2.38-2.36,4.92-3.62,7.35-.79,1.53-1.8,2.94-2.6,4.46s-1.32,2.92-2,4.37-1.37,2.68-1.94,4.07c-1.19,2.88-2.31,5.78-3.43,8.68s-2.28,5.76-3.27,8.69c-.6,1.77-.87,3.64-1.34,5.46-.4,1.55-.94,3.06-1.28,4.62-.24,1.1-.23,2.25-.37,3.37-.37,3-1.09,6-1.06,9,.06,5.74.44,11.49.88,17.21.33,4.3.86,8.59,1.46,12.86a62.39,62.39,0,0,0,3.55,15c1,2.54,1.71,5.23,2.66,7.8a34,34,0,0,0,2,4.19c1.48,2.78,3,5.52,4.54,8.3.47.86.65,2,1.33,2.61,1.23,1,1.61,2.5,2.48,3.69a25.64,25.64,0,0,0,2.56,3.2c2.77,2.71,5.63,5.32,8.44,8,1.2,1.14,2.33,2.36,3.56,3.48a22.19,22.19,0,0,0,2.27,1.68c3.76,2.63,7.45,5.35,11.3,7.84,2.51,1.63,5.22,3,7.89,4.37,3.17,1.66,6.37,3.3,9.61,4.82,4.38,2,8.81,4,13.24,5.95,3.19,1.39,6.41,2.76,9.66,4,2.6,1,5.27,1.87,7.92,2.77,2.88,1,5.78,1.91,8.66,2.9.2.07.32.4.48.61l-.19.41-5.38-1.61c-.6-.17-1.22-.29-1.82-.46-1.65-.47-3.3-1-5-1.42-1.3-.36-2.63-.6-3.92-1-.79-.24-1.52-.7-2.31-1a41.3,41.3,0,0,0-4.07-1.21c-.38-.09-.85.24-1.29.37l0,.42c3,1,5.92,2,8.89,3,2.22.74,4.45,1.5,6.71,2.12,4.79,1.33,9.62,2.55,14.42,3.87,2.66.74,5.27,1.64,7.93,2.39.87.24,1.83.11,2.71.31,4.36,1,8.71,2.08,13.06,3.12.14,0,.3.15.42.11,2.07-.73,3.75.85,5.7,1s3.94.78,5.92,1c3.47.45,7,.46,10.41,1.27a46.89,46.89,0,0,0,6.06.76c3.38.35,6.7,1.33,10.19.87,1.35-.18,2.8.62,4.22.75,1.79.15,3.61,0,5.41.13a4.56,4.56,0,0,1,2.29.54c1.14.79,2.23.44,3.39.35,1.91-.15,3.83-.21,5.75-.24,2.59,0,5.18,0,7.77,0l16.13.06c3.65,0,7.3,0,11,0,3,0,6.07.15,9.49.24-.35.54-.57,1.13-.74,1.12a9.75,9.75,0,0,1-1.92-.55l-.29.64a3.15,3.15,0,0,0-.33-.22c-.36-.19-.73-.55-1.06-.52a5,5,0,0,0-2.32.62c-1.14.83-2.2.2-3.31.2-2.1,0-4.21.12-6.31.16-.61,0-1.23-.11-1.83-.08-.93,0-1.86.28-2.78.26a19.75,19.75,0,0,1-4.15-.44,2.61,2.61,0,0,0-2.47.27,6,6,0,0,1-3.23.63c-1.22,0-2.42-.5-3.65-.58-.93-.07-1.87.28-2.81.28q-6.36,0-12.71,0c-1.69,0-3.38-.28-5.06-.24a42.25,42.25,0,0,0-4.31.53v.69l4.55.69-.08.56-5.91-.65c.71-1.27.3-2.09-1-2.22-1.93-.2-3.91-1-5.8.07a8.47,8.47,0,0,0-1.5,1.67c-.51-.22-1.63-.28-1.51-1.73a.92.92,0,0,0-.44-.68c-1.57-1-4.77-.27-6.26.9-.69.54-2,.34-2.95.48a9.66,9.66,0,0,0,.06-1.74,12.51,12.51,0,0,0-2.84-.43,10.34,10.34,0,0,0-2.1.39,4.41,4.41,0,0,1-3.64-1,3.39,3.39,0,0,0-2.74-.36c-1.93.78-3.54-.21-5.27-.53a15,15,0,0,0-3.76-.58,9.63,9.63,0,0,1-4.41-1,19.16,19.16,0,0,0-3.07-.59c-1.76-.36-3.51-.75-5.27-1.11-1-.21-2-.41-2.95-.58a9.2,9.2,0,0,1-2.21-.34c-3.24-1.48-6.73-1.41-10.16-1.79a2,2,0,0,1-.43,0c-1.48-.59-2.93-1.27-4.44-1.77-1.11-.37-2.3-.49-3.45-.76-.57-.13-1.11-.35-1.68-.5-2.61-.73-5.29-1.29-7.84-2.22-3.26-1.18-6.38-2.75-9.62-4s-6.6-2.22-9.86-3.44c-1.72-.65-3.33-1.61-5-2.36a29,29,0,0,0-3.9-1.44,3.38,3.38,0,0,1-2.53-1.77c-.4-.76-1.79-1-2.73-1.48l-6.42-3.31c-1.57-.8-3.18-1.53-4.71-2.4-2.34-1.33-4.63-2.72-6.91-4.12-4.09-2.53-8.08-5.23-12.27-7.58a16.71,16.71,0,0,1-5.21-4.6c-.53-.69-1.15-1.32-1.73-2l.5-.57c4,2.78,7.75,6.09,12.55,7.82a4.59,4.59,0,0,0-.83-1.13c-2.36-1.69-4.83-3.25-7.12-5-2-1.55-3.81-3.39-5.79-5-1.53-1.24-3.19-2.32-4.8-3.47l-.44.37,1.38,2.12c-1.23.82-2,.47-2.62-.78a7.57,7.57,0,0,0-1.91-1.92,8,8,0,0,1-1-.8,3.89,3.89,0,0,1-.4-1.1c.33,0,.66-.07,1-.12s.88-.14,1.49-.24c-1.33-1.79-2-3.65-3.49-5.11a31.66,31.66,0,0,1-3.59-4.75,25,25,0,0,1-1.46-3c-.78-1.57-1.51-3.17-2.38-4.7-1.18-2.07-2.46-4.09-3.7-6.13-.15-.24-.49-.59-.43-.72.92-1.73-.85-3-.78-4.58,0-.74-.59-1.09-1.14-1.6a4.57,4.57,0,0,1-1.41-4c.31-1.92-.52-3.46-1.47-5a4.32,4.32,0,0,1-.57-2.75c.47-2.48-.45-4.72-.9-7s-1.15-4.51-1.53-6.8a30.11,30.11,0,0,1,.09-3.54c-.07-1.68-.29-3.35-.44-5a4.15,4.15,0,0,1-.09-1.7c.52-1.36-.1-2.59-.18-3.87-.06-1,.11-2.07.13-3.11s0-2.18,0-3.38l-1,.26c1.48-.93,1.21-2.08.89-3.49-.24-1.09.24-2.34.3-3.52a20.23,20.23,0,0,1-.08-2.57c.13-.71.76-1.32,1-2s1-1.51.13-2.35c-.09-.08,0-.48.1-.61,1.56-1.74,1.17-4.07,1.84-6.07s1.31-4.33,2-6.47c1.26-3.64,2.59-7.25,3.91-10.87,1.08-3,2.19-6,3.55-8.88a2.14,2.14,0,0,0,0-1.07c.77-1.27,1.41-2.31,2-3.37q2.29-4,4.56-8c.52-.93,1-1.91,1.49-2.85q2.08-3.72,4.22-7.42c1.34-2.34,2.65-4.7,4.08-7,1.15-1.84,2-3.86,3.92-5.2,1-.74,1.67-2.11,2.46-3.21,1.17-1.61,2.36-3.21,3.47-4.85,1-1.49,1.85-3.09,2.91-4.53.84-1.13,1.93-2.08,2.87-3.14.33-.37.49-.88.82-1.24,2-2.15,4.08-4.28,6.12-6.42,1.73-1.81,3.38-3.69,5.21-5.4s4.14-3.48,6.12-5.31c.88-.81,1.39-2.05,2.31-2.81,1.52-1.25,3.24-2.28,4.87-3.4l.58-.39-.1-.39-3.21.78a3.32,3.32,0,0,1,3.14-1.53,2.27,2.27,0,0,0,1.91-.91,31.24,31.24,0,0,1,3-2.51c3.52-2.94,8-3.39,12.19-4.53a8.74,8.74,0,0,0,5.71-4.92,89.28,89.28,0,0,1,4.36-8.48c.71-1.12.69-2.67,1.16-4,.83-2.27,1.78-4.5,2.7-6.74a5.22,5.22,0,0,1,.53-.95c.4-.57.82-1.12,1-1.35.55-1.7.94-3.08,1.44-4.42.37-1,.88-2,1.4-3.14h.84l-.69-1c.4-.74.76-1.34,1.05-2,1.71-3.66,3.37-7.35,5.12-11,1-2,2-4,3.07-5.95a2.27,2.27,0,0,1,2.77-1.35,15.87,15.87,0,0,1,.43-3,19.33,19.33,0,0,1,1.5-2.89c.16-.29.43-.53.58-.83.6-1.22,1.14-2.49,1.78-3.7,1.09-2.05,2.49-3.77,5.24-4.07l-1.47-1.33c1.61-1.37,3.22-2.58,5.45-2,.52.15,1,.49,1.51.69,1.3.49,2.6,1,3.93,1.4.17.05.51-.45.78-.69l0-.52c2.57,1.86,5.16,3.68,7.69,5.58,2.15,1.62,4.2,3.35,6.32,5s4.21,3.16,6.28,4.79a75.66,75.66,0,0,1,6.59,5.48,34.11,34.11,0,0,1,5.47,6.66,97.26,97.26,0,0,0,6.5,10.12,10.84,10.84,0,0,0,2.15,1.66c.82-.66,1.36-.23,2,.53a45,45,0,0,0,3.86,3.83c.27.24.94,0,1.89,0a19,19,0,0,0-1.3-2c-1-1-2.08-2-3-3.07a22.68,22.68,0,0,1-1.64-2.79c-.39-.69-.82-1.36-1.22-2s-.93-1.56-1.41-2.33c-.29-.48-.58-1-.91-1.42a38.24,38.24,0,0,1-2.81-3.82,50.12,50.12,0,0,0-5-7.55c-2.7-3.24-6-5.67-9.17-8.37-1.12-1-2.4-1.72-3.57-2.63a10.63,10.63,0,0,1-1.17-1.24l.38-.47c1.6,1,3.27,2,4.77,3.16,2.64,2.05,5.21,4.19,7.73,6.38a42.8,42.8,0,0,1,7.48,7.85c2.13,3.08,4.22,6.2,6.43,9.22a65.73,65.73,0,0,0,4.23,5,7,7,0,0,0,1.72,1.09l.44-.37a13,13,0,0,0-1.44-2.5c-1.34-1.48-3.08-2.63-4.19-4.24-1.8-2.62-3.13-5.55-4.83-8.25a36.65,36.65,0,0,0-3-3.42c-.8-1-1.43-2.08-2.26-3a8.4,8.4,0,0,0-1.73-1.21,8,8,0,0,0-1.32-2.05c-3.52-2.77-7.12-5.43-10.66-8.18-1.35-1.06-2.56-2.29-3.87-3.39-2.11-1.78-4.22-3.56-6.37-5.28-1.6-1.28-3.27-2.48-4.81-4a21.11,21.11,0,0,1,3.64,1.76c4.55,3.39,9,6.92,13.52,10.37,2.16,1.66,4.42,3.19,6.52,4.92,2.91,2.4,5.84,4.8,8.52,7.45s4.92,5.42,7.31,8.19c3.54,4.1,6.91,8.36,10.61,12.3,1.84,2,4.07,3.49,7.26,2.86,5.41-1.08,10.88-1.81,16.33-2.68.07,0,.16.08.4.22l-1.62.58,0,.2c2.68-.4,5.36-.84,8-1.17,5.9-.71,11.8-1.4,17.71-2,15.57-1.62,31.2-1.41,46.82-1.43,9.71,0,19.43.06,29.13.3,6.2.15,12.38.72,18.57,1a62.42,62.42,0,0,0,8.43,0,29.27,29.27,0,0,0,5.55-1.56.84.84,0,0,0,.43-.38c.9-1.6,2-1.69,3.73-1.09,1.12.38,2.72-.26,4-.74,3.14-1.17,6.27-2.41,9.3-3.83,1.94-.91,3.71-2.19,5.56-3.29,2.34-1.4,4.74-2.72,7-4.22s4.52-3.22,6.76-4.87c2-1.48,4-3,6-4.5,1.27-1,2.48-2.07,3.74-3.09.54-.45,1.12-.87,1.68-1.3l.32.3c-.65.67-1.28,1.34-1.94,2-1.8,1.76-4.19,2.89-5.45,5.27-.31.59-1.32.78-1.94,1.23-.21.15-.22.57-.32.87A18.29,18.29,0,0,0,518,321c-4.76,3.43-9.48,6.91-14.21,10.38a2.11,2.11,0,0,0-.35.38l.15.31a8.31,8.31,0,0,0,1.87-.75c4.21-3,8.44-5.94,12.53-9.09C519,321.49,520.54,321.17,520.62,319.55Zm146.5,95.25c.9,1.13,1.75,2.15,2.54,3.22a18.36,18.36,0,0,1,2,2.92,26.07,26.07,0,0,1,1.28,3.7c.39,1.28.7,2.59,1.07,3.87.72,2.52,1.49,5,2.15,7.56A6.39,6.39,0,0,1,676,438l-1.07-.94a2.54,2.54,0,0,0-.33.93c.08,1.22.27,2.44.34,3.65.25,4.56.42,9.11.72,13.66.32,4.89.72,9.76,1.15,14.64.14,1.66.59,3.31.68,5,.21,3.65.27,7.31.42,11,0,1,.19,2,.29,3l.57,0c0-2.76.07-5.51.13-8.27a24.68,24.68,0,0,1,.19-2.71c0-.24.4-.43.62-.64.18.18.56.48.52.54-.53.93.55,1,.91,1.47-.08-1.52-.15-3-.22-4.48-.67,0-1.34.28-1.6,0s-.55-1.16-.36-1.41a5.25,5.25,0,0,0,.86-2.59c.2-1.12.49-2.23.77-3.45-1.64.31-1.05-.9-1.26-1.45-.06-.17.5-.58.94-1.06a7,7,0,0,0,.06-1.62,8.19,8.19,0,0,0-.76-1.72c.05-.87.22-2.06.18-3.23,0-1.36-.33-2.71-.42-4.08-.18-2.89-.16-5.81-.47-8.69-.47-4.4-1.07-8.79-1.76-13.16-.37-2.29-1-4.53-1.55-6.8-.12-.54-.14-1.1-.21-1.65l.58-.12a33.25,33.25,0,0,1,1.79,4.91c.65,3.25,1.06,6.55,1.51,9.83.16,1.13.11,2.29.26,3.42.2,1.58.48,3.16.77,4.73.17.93.42,1.85.64,2.78l.65-.15c-.09-.82-.22-1.64-.26-2.47a94.34,94.34,0,0,0-2-16.5c-.19-.84-.31-1.7-.56-2.52-.85-2.87-1.68-5.74-2.65-8.56a18.3,18.3,0,0,0-1.78-3.39c-.83-1.36-1.71-2.69-2.64-4-1.47-2-2.32-4.67-5.21-5.3a1.17,1.17,0,0,1-.58-.41c-.82-1.06-1.61-2.15-2.44-3.21-.4-.52-.84-1-1.27-1.5-2.14-2.7-4.94-4.61-7.66-6.6s-5.47-4-8.27-6.13c.14-.11.35-.34.42-.3,1.17.62,2.33,1.28,3.5,1.92.31.17.65.29,1,.43l.23-.45c-.74-.51-1.46-1.06-2.23-1.53-2.7-1.64-5.43-3.24-8.13-4.88-4.6-2.77-9.17-5.57-13.79-8.31a7,7,0,0,0-1.93-.56c-.68-.4-1.07-.67-1.49-.88a7.21,7.21,0,0,1-1.42-.6c-1.15-.93-2.18-2-3.37-2.91-1-.74-1.85-1.88-3.44-1.72a3.15,3.15,0,0,0,.87,1.6,49.88,49.88,0,0,0,4,3.21c3.72,2.61,7.5,5.14,11.26,7.7,2.77,1.88,5.56,3.73,8.32,5.63,2.09,1.44,4.14,2.93,6.19,4.41,2.55,1.83,5.13,3.61,7.62,5.51a66.63,66.63,0,0,1,5.7,4.77,58.5,58.5,0,0,1,5.12,5.66c1.15,1.44,2,3.12,3,4.68C668.47,413.35,668.33,414.26,667.12,414.8ZM332.33,346.46l0,.44a6.86,6.86,0,0,0,1.2,0c3.88-.71,7.73-1.53,11.62-2.16,5.35-.87,10.71-1.92,16.1-2.31,10.93-.79,21.89-1.53,32.84-1.67,17.18-.22,34.36,0,51.53.19,7.3.09,14.59.6,21.88.9.85,0,1.71-.1,2.56-.15v-.36a9.22,9.22,0,0,0-1.52-.34c-8.49-.59-17-1.32-25.48-1.69-7.59-.33-15.2-.45-22.79-.33q-22.65.36-45.3,1.13A207,207,0,0,0,339,345C336.8,345.44,334.57,346,332.33,346.46Zm234.52-55.52-.46.22a8.1,8.1,0,0,0,.64,1.4q4,5.69,8,11.33c1.69,2.37,3.52,4.65,5.05,7.12,2.18,3.51,4.25,7.1,6.16,10.77,1.28,2.47.89,5.59,2.77,7.9.1.12,0,.37.08.56A39.4,39.4,0,0,0,590.2,336c.33,1,1.24,1.73,1.21,3.11,0,1.22.9,2.45,1.36,3.69.15.42.12.91.24,1.35a7.44,7.44,0,0,0,.52,1.23,19.7,19.7,0,0,1,1.08,2.09,1.86,1.86,0,0,0,2.08,1.51,24.74,24.74,0,0,1-1.1-2.69c-.64-2.4-1.09-4.85-1.81-7.23-1.07-3.56-2.43-7-3.42-10.62a45.3,45.3,0,0,0-5.06-12.12c-1.5-2.4-3-4.82-4.58-7.13-3-4.35-6.11-8.66-9.29-12.9C570,294.41,569.16,292,566.85,290.94ZM669.57,516.19c0,.62.18,1.21,0,1.59-.89,1.62-2,3.13-2.85,4.75-1,1.81-1.76,3.7-2.66,5.54-.61,1.23-1.21,2.47-1.93,3.63-1.14,1.82-2.39,3.57-3.58,5.36-.82,1.23-1.63,2.48-2.43,3.72-1.23,1.93-2.38,3.92-3.71,5.77s-2.75,3.27-4,5c-2,2.64-4.06,5.28-6,8-1.18,1.72-2.11,3.61-3.17,5.47.15-.06.33-.06.4-.15,2.53-3.12,5.09-6.22,7.55-9.39s4.71-6.26,7-9.41a28.3,28.3,0,0,1,2.57-3.58,13.75,13.75,0,0,0,4.16-6.51,2.74,2.74,0,0,1,.36-.94c1.33-1.88,2.75-3.72,4-5.64a31.86,31.86,0,0,0,1.63-3.19c1.31-2.63,2.65-5.24,3.92-7.89C671.42,517.17,670.79,516.57,669.57,516.19ZM675,512l-.38-.16c-.63,1.76-1.22,3.54-1.9,5.28s-1.42,3.55-2.29,5.24-2,3.2-2.1,5.16C672.32,521.68,675.31,513.6,675,512Zm6.42-87.2c.82,4.14,1.63,8.27,2.49,12.61C684.87,435.52,683.24,426.45,681.44,424.81ZM571.73,291.31l-.27.23a2.23,2.23,0,0,0,.13.39c1.83,2.6,3.66,5.21,5.53,7.79.17.23.63.26,1.25.5A48.05,48.05,0,0,0,571.73,291.31ZM678.6,416.64c.53-1.46-1.58-5.8-3.74-7.13C676.1,411.86,677.33,414.21,678.6,416.64Zm-3,91.67.45.05c1.94-4.85,2.19-6.49,1-7.44C676.55,503.44,676.08,505.88,675.61,508.31ZM655.27,403.67l-5.33-4.05C650.11,401.5,653.28,404,655.27,403.67Zm29.29,34.22L684,438v3.39l1.67-.19ZM216.23,620.34c.67,1,3.65,2.43,4.45,2.19.25-.08.41-.45.67-.74ZM213,619.4l0,.58,2.15.25c0-.29.07-.67-.09-.84A1.28,1.28,0,0,0,213,619.4ZM649.9,387.29l.18-.37-3.61-2.26-.24.4Zm-7.76-4.85.19-.32L638.74,380l-.19.34Zm8.13-2.13-.26.41,2.47,1.45.26-.44Z" transform="translate(-110.72 -254.69)"/><path d="M250.91,430.23c2.28-.65,3.48-3,6.24-3.11a196.53,196.53,0,0,1,32.53,1.69c11.35,1.44,22.72,2.8,34.06,4.34,3.17.43,6.26,1.41,9.39,2.1.59.13,1.23,0,1.84.08,1.6.21,3.34.17,4.75.84a25.79,25.79,0,0,0,2.5,1.52c.77.27.49,2-.34,2.56l-16.17,10.2-.83.51.42.58c1.31-.76,2.64-1.49,3.92-2.3,4.42-2.77,8.82-5.59,13.25-8.35a5.81,5.81,0,0,1,1.77-.41l.09.36-1.66,1.43.1.23a4.07,4.07,0,0,1,1.26-.24c.44.05,1.12.22,1.23.51a1.4,1.4,0,0,1-.45,1.27c-2.78,2-5.61,3.86-8.42,5.78-.4.27-.76.61-1.14.92l.15.4,3.08-.36.18.53c-1.45.86-2.91,1.69-4.34,2.57-3.29,2-6.64,4-9.84,6.18-4.68,3.17-9.27,6.45-13.85,9.76-2.91,2.1-5.72,4.36-8.61,6.49-4.81,3.55-9.59,7.14-14.51,10.55-3.73,2.58-7.66,4.9-11.5,7.34-2.46,1.56-4.88,3.18-7.38,4.65a23.15,23.15,0,0,1-2.95,1c-1,.39-1.88.95-2.83,1.4a5.31,5.31,0,0,1-1.06.27l.6-2.93-1.81.56c-.92.28-1.83.6-2.76.84-2.37.6-3.6-.11-4.42-2.49-.05-.16-.24-.27-.47-.51l4.06-2.71-2.45-.57-.19-.33,4-1.92-.16-.44-4.12,1.24-.16-.46,5.36-2.2c-.79-1-.4-1.38.53-1.92,6.08-3.55,12.18-7.1,18.12-10.88,3.94-2.51,7.7-5.32,11.4-8.18,2.94-2.26,5.57-4.92,8.5-7.21,3.35-2.61,6.89-5,10.32-7.5,2.38-1.75,4.71-3.56,7-5.58l-3,.42c.37-1.67-.77-1.69-1.83-1.83-5.28-.69-10.55-1.47-15.85-2.08-6.3-.74-12.61-1.45-18.94-2-5.31-.42-10.65-.53-16-.83a2.37,2.37,0,0,1-1.5-.83c-1.72.09-3.43.26-5.15.24a2,2,0,0,1-2.18-1.29c-.45-1-1.77-1.68-2.71-2.5l0-.56a15.79,15.79,0,0,1,3.47-.88c5.82-.15,11.66-.43,17.47-.14,5.21.27,10.39,1.22,15.58,1.88l20.88,2.68c4,.52,8,1.07,12,1.56a20.65,20.65,0,0,0,2.61,0l.07-.47a6.67,6.67,0,0,0-1.24-.41c-1.32-.12-2.63-.19-3.65-1.27-.17-.18-.78.09-1.17,0-1-.15-1.93-.37-2.9-.58-.25-.05-.48-.22-.74-.26-4.35-.68-8.7-1.4-13.06-2s-9-1.12-13.46-1.58q-5.53-.59-11.09-.92a74,74,0,0,0-8-.12,58.89,58.89,0,0,0-6,.9,4.49,4.49,0,0,1-1.63,0l.47-.18,0,.24-8.94-1.69c2.81-2.23,5.78-1.29,8.87-1.82l-2-1.26a9.75,9.75,0,0,1,2.5-.59q5,.23,10.06.67c6.61.58,13.22,1.12,19.81,1.88,9.17,1.05,18.33,2.26,27.48,3.45,3.52.45,7,1.08,10.54,1.55a5.6,5.6,0,0,0,1.8-.34l0-.66c-1-.2-2.08-.43-3.12-.61-3.26-.56-6.51-1.18-9.78-1.63-5.37-.73-10.77-1.3-16.15-2-1.26-.17-2.46-.79-3.72-.92-3-.33-5.94-.47-8.9-.72-4.41-.36-8.81-.93-13.23-1.08-5.22-.18-10.47-.08-15.7.05a36.74,36.74,0,0,0-5,.86,5.87,5.87,0,0,1-1.11,0ZM302.14,474l-.25-.3,4.78-3.89-.35-.42a237.25,237.25,0,0,1-34,23.28,162,162,0,0,0,20.85-12.27l.26.43-21,13.31c4.92-.79,40.91-25.92,41.43-28.81ZM271.82,440.6l0-.17a52,52,0,0,0-5.69-.42c-2.26.06-4.73-.73-6.8,1.41Zm-11.73,57.16c-1.31-.15-2.21-2.16-3.48-.53-.39.49-.25,1.4-.34,2.11l.46.2Zm54.27-32.92.31.5,4.18-2.84-.32-.52A43.35,43.35,0,0,0,314.36,464.84ZM272.11,432l0,.34,7.06.72,0-.39Zm-15.7,1.56,0,.16h6.73v-.16Zm2.58-1.69,0,.11h3.5l0-.26Z" transform="translate(-110.72 -254.69)"/><path d="M504.2,426.14a275.91,275.91,0,0,0,24.1-16,18.94,18.94,0,0,0-2.91.4,15.29,15.29,0,0,0-2.38,1.21c.48-1.46,8.62-6.67,9.9-6.47a6.33,6.33,0,0,1,4.37-2.91,2.79,2.79,0,0,0,1.18-.71,20.72,20.72,0,0,1,2.87-2.69c2.44-1.49,5-2.84,7.54-4.09,2.33-1.14,4.77-2,7.12-3.11,1.32-.61,2.45-.13,3.59.35s2.2,1,3.24,1.54l-1.55,1,4.21,1.41,0,.38-1.47.55c.08.43.15.88.24,1.35l-1,.72c.89,1.8.84,2-1.17,3.13-.84.49-1.86.76-1.78,2.09,0,.2-.64.48-1,.65-1.56.73-3.15,1.38-4.68,2.16-2.41,1.24-4.79,2.5-7.14,3.85-3,1.71-5.94,3.48-8.88,5.28-2,1.23-3.91,2.58-5.89,3.84-2.18,1.38-4.34,2.8-6.6,4-1.15.63-2.55.66-3.64,1.61s-2.94,1.47-3.69,2.65c-2.32,3.69-6.54,4.7-9.57,7.32-.29.26-.61.47-.91.71-.73.58-.61,1.06.22,1.35s1.78.45,2.61.81a17.31,17.31,0,0,1,2,1.27,2.27,2.27,0,0,0,.63.34c8,2.08,16,4.22,24,6.21,5.49,1.37,11,2.7,16.56,3.72,4.15.76,8.39,1,12.6,1.44a5.31,5.31,0,0,0,1.84-.25c2-.52,3.92.23,5.72.85.84.29,1.33,1.57,2.12,2.59l2.54-.26,0,.33-2,.34c.49.85.89,1.13,1.73.57s1.62-.27,2,1.12l-3.43.38,0,.37,2.86.73c-.69,2-2.46,1.49-3.82,2h1.86v1.5c-1,.36-2.46.43-3,1.16a5.89,5.89,0,0,1-4.38,2.59c-1.78.28-3.45,1-5.3.49a1.7,1.7,0,0,0-1.32.27l2.82.4c-.93.68-.93.68-5.15.11.16-1.4-.89-1.25-1.73-1.34-3.05-.36-6.12-.58-9.15-1.07-4.16-.68-8.31-1.51-12.45-2.39-6.76-1.44-13.5-3-20.25-4.45-5.63-1.23-11.28-2.35-16.89-3.68-4.8-1.14-9.78-1.68-14.25-4-2-1-3.83-2.16-5.72-3.29-.35-.21-.85-.6-.85-.91,0-1.57-1.09-2.5-1.9-3.58-.6-.79-.29-1.1.52-1.25a3,3,0,0,1,.42-.06c2.77-.3,2.77-.3,2.69-3,0-.95.41-1.26,1.26-.84s1.43.79,2.13,1.21c2.94,1.8,6.22,2.29,9.57,2.75,2.83.38,5.62,1.13,8.41,1.78,7.4,1.73,14.77,3.54,22.17,5.23,7.59,1.75,15.17,3.52,22.8,5,3.44.68,7,.73,10.51,1.07l.06-.51c-2-.3-4-.52-5.94-.91-6.59-1.32-13.18-2.63-19.74-4.07s-13.2-3.06-19.8-4.56c-4.26-1-8.58-1.73-12.79-2.86a91.85,91.85,0,0,1-9.06-3.19,12.58,12.58,0,0,1-3.49-1.86,3.2,3.2,0,0,1-.7-2.26c0-.33.77-.77,1.27-1a16.4,16.4,0,0,0,2.15-.64c3.83-2.43,7.62-4.92,11.41-7.42,3.35-2.21,6.67-4.47,10-6.72.94-.64,1.83-1.32,2.78-1.94.18-.12.5,0,.76,0,0,.3,0,.71-.16.87a38.21,38.21,0,0,1-3.57,3c-2.8,2-5.68,3.88-8.52,5.8Zm56.47,29.66v-.6l-1-.09a130.09,130.09,0,0,1-22.23-3.06c-6.08-1.37-12.1-3-18.16-4.41-5.22-1.24-10.47-2.37-15.68-3.63-5.45-1.31-10.88-2.73-16.32-4.08-1-.26-2.1-.39-3.15-.58l-.09.36a22.89,22.89,0,0,0,7.28,2.69c1.83.31,3.65.65,5.44,1.07,4.15,1,8.28,2,12.43,3,4.91,1.13,9.82,2.26,14.75,3.23,9.71,1.92,19.42,3.79,29.16,5.55A69.48,69.48,0,0,0,560.67,455.8Zm-20.45,1.31,0-.42c-3.68-.86-7.36-1.71-11-2.6a23.31,23.31,0,0,1-5.1-1.42c-1.12-.55-2-1.49-3.37-1.71-2-.3-3.9-1-5.85-1.53-4.14-1.05-8.28-2.1-12.43-3.09-2.43-.59-4.89-1.07-7.33-1.59l-.13.4,1.49.64c.25.1.74.19.74.29,0,1.31,1.11,1.14,1.84,1.33,2.74.71,5.5,1.34,8.26,2L534.78,456C536.58,456.42,538.41,456.74,540.22,457.11Zm13.21-56.85.29.56,7.86-3.45-.26-.59Zm17.69,62.37H564C566.4,462.91,568.72,464.4,571.12,462.63Zm-64.51-26.47.2.36,5.3-3.29-.23-.39Z" transform="translate(-110.72 -254.69)"/><path d="M341.2,595.51c-.36-.71-.66-1.23.41-1.45.36-.07.62-.62.92-.95l-.35-.35-1.65.51a11.63,11.63,0,0,1-.13-2.65c.14-.83.66-1.3,1.67-1.63a3,3,0,0,0,2.18-3,4.73,4.73,0,0,1,2.3-4.48,2,2,0,0,0,.7-.71c2.16-3.83,5.69-6.19,9.25-8.42,4.49-2.82,9.15-5.35,13.94-7.83l-1-.09c0-.1,0-.23.07-.25a8.22,8.22,0,0,1,1.73-.69c1.91-.32,2-1.93,2.68-3.29s1.55-2.87,1.56-4.59c0-.19.38-.38,1-.91.15,1.68.22,3,.39,4.34.09.66-.45,1.85.75,1.79,1,0,.87-1.09.89-1.93a29.67,29.67,0,0,1,.43-4.71,3,3,0,0,1,1.28-2c2-.78,3.73-2.69,6.41-1.47.86.4,1.82.4,2.33,1.37,0,.08.13.2.19.2,2.53,0,2.14,2.17,2.36,3.52a70.3,70.3,0,0,1,.94,9.71c0,1.62-.65,3.25-1,4.94l1.34.48c-.67.32-1,.51-1.3.62-2.11.76-2.77,1.84-2.74,4.13,0,.33-.84.95-1.28.93a66.06,66.06,0,0,0-9.82.83c-5.81.74-10.56,3.36-15,6.92-.33.27-.69.51-1,.77a4,4,0,0,0-1.6,4c.37,3.16,2.34,5.05,4.44,7.08,3.72,3.58,8.46,5,13.09,6.66a9.06,9.06,0,0,0,3.82.25c3.05-.29,6.09-.75,9.13-1.15,2.18-.28,4.37-.5,6.54-.87,7.14-1.23,14.29-2.47,21.41-3.79,2.79-.52,5.54-1.23,8.3-1.89,2.3-.55,4.56-1.08,6.9-.11a4.63,4.63,0,0,0,1.66-.09c0,.8-.3,1.86.08,2.27s1.48.25,2.43.35l-.82,1.31a2.93,2.93,0,0,1-.25,4,6,6,0,0,0-2.77,3.13,3.1,3.1,0,0,1-2.43,1.44c-5.95.19-11.62,1.88-17.42,2.91a11.41,11.41,0,0,1-1.94,0l-.05-.36c2-.48,3.93-.93,5.88-1.42,1.49-.38,2.94-.89,4.44-1.17a28.58,28.58,0,0,1,4.24-.41c1.93-.06,3.52-.94,5.42-1.84-1.82-.42-43,8-44.2,9h2.29a22.33,22.33,0,0,1-12.76,1.2c-1.95-.37-3.88-.89-5.8-1.4a4.47,4.47,0,0,1-1.09-.7,4.88,4.88,0,0,0-.95-.57c-3.34-1.17-6.68-2.31-10-3.49-.34-.12-.6-.45-.93-.63-.63-.34-1.31-.61-1.93-1a20.11,20.11,0,0,1-2.93-1.79,48.42,48.42,0,0,1-4-3.82c-1.58-1.69-3.05-3.49-4.56-5.25a6.72,6.72,0,0,1-.5-.69C343.31,594.26,343.31,594.26,341.2,595.51Zm40.1,15.57-4.92.48.11.72c1.55-.71,3.39.19,4.81-1.23a7,7,0,0,0,2.18.3c3.52-.69,7-1.49,10.53-2.26.94-.2,1.88-.44,2.83-.67l0-.44a5.38,5.38,0,0,0-1.42-.16c-1,.15-2,.4-2.95.63ZM377,607.92l0-.55-12.34-1.76c.64.76,1,1.63,1.47,1.69,3,.41,6.06.66,9.1.9A7.17,7.17,0,0,0,377,607.92Z" transform="translate(-110.72 -254.69)"/><path d="M441.17,426.66a5.9,5.9,0,0,0,1.69,1c1.64.34,2.22,1.2,1.82,2.89-.14.55,0,1.15-.13,1.7-.65,3.2-4.5,6.42-7.79,6.6-1,.06-2,.3-3,.34a49.45,49.45,0,0,1-5.71,0c-6.7-.57-13.38-1.45-20.12-1.15-5.27.23-10.54.48-15.8.89a32.14,32.14,0,0,0-6.23,1.37l14.29-1.83,0,.26-20.91,3.81c0,.05,0-.16.06-.44l-1.31-.21-.07-.31,4.08-1.42,0-.1-7.28,1.76-.15-.49L381.3,439l-.16-.46c-2.7.93-5.42,1.79-8.09,2.8-1.16.45-1.76.35-2.37-1.05l3.54-.88-.06-.3-3.31.59-.11-.38,4.72-1.26-.07-.41c-1,.13-2,.31-3.05.37s-2,0-3.07,0l-.13-.45c.88-.47,1.77-.91,2.64-1.41a5.45,5.45,0,0,0,.8-.73,4.82,4.82,0,0,0-.83-.8c-1.09-.64-1.1-1.65.16-2.29a22.33,22.33,0,0,1,3.27-1.07l1.8-.57c-.71-.91-.32-1.29.61-1.69a61.92,61.92,0,0,1,24.32-5.36c8.17-.11,16.34,0,24.51.07,3,0,6.06.13,9.07.4a12.22,12.22,0,0,1,3.36,1.17c.83.33,1.61.75,2.41,1.14Zm-9,1.15,0-.48c-1.19-.06-2.38-.09-3.57-.18a5.49,5.49,0,0,1-1.38-.3,8.32,8.32,0,0,0-2.13-.87c-6.62-.35-13.24-.62-19.87-.89a6.61,6.61,0,0,0-1.43.25l0,.38h3.79v.34l-4.44.2,0,0Zm-6.67,8.93v-.56a190.28,190.28,0,0,0-26.85-.43Zm-47.15-6.22,22.1-3.3c-3.76.19-7.53.42-11.28.8-2.75.27-5.5.66-8.22,1.15C380,429.33,378.7,429.18,378.31,430.52Zm5.4-2.66.08.47L396,426.07l-.09-.49Z" transform="translate(-110.72 -254.69)"/><path d="M373,462.53c-1.24,0-2.48,0-3.73,0a3.45,3.45,0,0,1-1-.39,4.81,4.81,0,0,1,.78-1c3.45-2.47,7.63-2.61,11.56-3.54,8.41-2,16.91-1.57,25.41-.73,7.85.77,15.71,1.46,23.56,2.22,2.39.23,4.77.51,7.15.86,1,.15,2.16.36,2,1.82l2.09.5c-.25.55-.43.92-.51,1.1l1.93,1.67c-1.21,1-2.4,1.6-2.82,2.52-1.44,3.13-4.62,1.44-7,2.85l3,.9,0,.34c-4-.27-8.29.23-12-1-4-1.36-8-1.12-12-1.78a121.62,121.62,0,0,0-12.33-1.34,55.25,55.25,0,0,0-16.22,1,7.87,7.87,0,0,0-2,.61h8.07l0,.34a40.92,40.92,0,0,0-4.16.29c-2.83.49-5.65,1.1-8.46,1.71-.38.09-.66.61-1,.69a3.89,3.89,0,0,1-1.33-.17l.21-1.19-6.31,1,1.42-2.23a11,11,0,0,1-2.33.2,4.35,4.35,0,0,1-1.84-.79,11.45,11.45,0,0,1-1.45-1.52l-.45-1.1c2.51-1.65,5.22-3.24,8.53-3.35a3.83,3.83,0,0,0,1.27-.56,13.83,13.83,0,0,0,1.44,0c4.73-.47,9.45-1,14.18-1.41,2-.16,4,0,6,0h5.75a.77.77,0,0,0-.61-.45,70.55,70.55,0,0,0-21.51.66C376.49,461.59,374.76,462.1,373,462.53Zm2.3-2.12.11.38c.52-.07,1-.15,1.56-.2,4.87-.49,9.73-1.31,14.61-1.35s10,.67,15,1.11c5.4.49,10.8,1.08,16.2,1.56,1.43.12,2.88,0,4.32,0a4.09,4.09,0,0,0-1.64-.46c-6.49-.71-13-1.45-19.48-2.13-7.16-.75-14.33-1.82-21.54-.63C381.4,459.22,378.36,459.84,375.31,460.41Zm48.43,2.64-.06.22,5.9.4,0-.29Z" transform="translate(-110.72 -254.69)"/><path d="M380.13,535.67l-1.72-.74s-.12,0-.13,0c-.57-1.74-2.72-1.39-3.59-2.69a8.81,8.81,0,0,1-1.42-2.57c-.11-.45.55-1.2,1-1.64s1-.35,1.45-.59c.26-.14.66-.54.61-.68-.82-2.21,1.13-1.84,2.08-2.08a4.62,4.62,0,0,0,2.92-2l-1.1-.37-.15-2c3.22-.94,6.42-2.39,10-1.43.92.25,1.78.65,2.69.94,1.13.35,2.27.66,3.13.91a13.15,13.15,0,0,0,.49,1.82c.64,1.44-.14,5-1.41,6.09-1.07.93-2.23,1.52-3,3.07-.67,1.38-2.94,2-4.54,2.92a8,8,0,0,1-1.93.81,21.1,21.1,0,0,1-3.06.55,21.87,21.87,0,0,1-2.43,0Z" transform="translate(-110.72 -254.69)"/><path d="M446.22,641.94c-18.16,2.41-36.45,3.17-54.8,4.06.22-1.89,1.84-1.58,2.73-1.64,9.1-.69,18.22-1.2,27.33-1.8,4.5-.3,9-.68,13.49-1,2.81-.21,5.62-.48,8.43-.58a11.78,11.78,0,0,1,2.87.61Z" transform="translate(-110.72 -254.69)"/><path d="M681.11,516.83c-.51,1-1,2-1.51,3.07a26.54,26.54,0,0,1-1.16,2.61c-2.29,3.79-4.64,7.54-7,11.3a2.8,2.8,0,0,1-.93.91c.25-1.56-.31-3.16.88-4.65.81-1,1.68-1.88,2.55-2.8a23.25,23.25,0,0,0,2.67-4.18c1.3-2.18,2.57-4.39,3.85-6.59Z" transform="translate(-110.72 -254.69)"/><path d="M548.34,616.72c-10.13,3.57-20.18,7.34-30.51,10.32l-.17-.39c.67-.28,1.32-.6,2-.82,2.64-.84,5.29-1.64,7.93-2.47,2.37-.75,4.76-1.47,7.1-2.31,2.11-.76,4.15-1.69,6.24-2.52q2.85-1.12,5.75-2.2a11,11,0,0,1,1.43-.31Z" transform="translate(-110.72 -254.69)"/><path d="M259.05,465.89a.32.32,0,0,1,.14,0c.68.27,1.76.4,1.93.86a2.45,2.45,0,0,1-.73,2,9.92,9.92,0,0,1-2.7,1.86c-.47.23-1.57.16-1.68-.07a4.26,4.26,0,0,1-.35-2.47C256.07,466.41,257.12,465.84,259.05,465.89Z" transform="translate(-110.72 -254.69)"/><path class="cls-1" d="M520.62,319.55c-.08,1.62-1.66,1.94-2.59,2.66-4.09,3.15-8.32,6.11-12.53,9.09a8.31,8.31,0,0,1-1.87.75l-.15-.31a2.11,2.11,0,0,1,.35-.38c4.73-3.47,9.45-6.95,14.21-10.38a18.29,18.29,0,0,1,2.64-1.37Z" transform="translate(-110.72 -254.69)"/><path d="M688.57,437.61a48.32,48.32,0,0,1-2-12.63C688.87,428.92,687.9,433.4,688.57,437.61Z" transform="translate(-110.72 -254.69)"/><path d="M225.5,636.8l9.95,2.89c-1.52,1.19-8.61-.74-10.1-2.45Z" transform="translate(-110.72 -254.69)"/><path d="M573.49,607.91l-9.81,4.75c.42-1.5,7.63-5.12,9.61-5.2Z" transform="translate(-110.72 -254.69)"/><path d="M408.63,611.61l-12.9,2.12C396.54,612.62,407.25,610.92,408.63,611.61Z" transform="translate(-110.72 -254.69)"/><path d="M546.45,394.13l-1.77,1.06c.27,1.16.17,1.32-3.5,2,.91-1.06,1.64-2.05,2.51-2.89A2,2,0,0,1,546.45,394.13Z" transform="translate(-110.72 -254.69)"/><path d="M663.63,543.7l4.66-6.5.56.41-4.62,6.55Z" transform="translate(-110.72 -254.69)"/><path d="M475.34,312.46c1.33-.13,2.7,1.07,2.5,2.2a1.12,1.12,0,0,1-.89.62C475.69,315.19,474.69,314.39,475.34,312.46Z" transform="translate(-110.72 -254.69)"/><path d="M461.33,640l-9.8,1.37-.06-.42,9.82-1.56Z" transform="translate(-110.72 -254.69)"/><path d="M476.62,644.8l-6.7,1.5-.16-.62,6.67-1.61Z" transform="translate(-110.72 -254.69)"/><path d="M483.61,331.26l1.81,2.21c-.36.28-.69.79-1.07.82-1.16.12-1.6-.73-1.7-1.7C482.63,332.3,483.08,332,483.61,331.26Z" transform="translate(-110.72 -254.69)"/><path d="M463.4,639.74a23,23,0,0,1,7-2l.13.65Z" transform="translate(-110.72 -254.69)"/><path d="M463.1,282.55a2.56,2.56,0,0,1,3.63-.52A2.48,2.48,0,0,1,463.1,282.55Z" transform="translate(-110.72 -254.69)"/><path d="M577.2,604.18l-6.45,3.21-.23-.47,6.56-3Z" transform="translate(-110.72 -254.69)"/><path d="M248.06,432.55c1.48-2.07,3.67-.65,5.42-1.4l.08.4Z" transform="translate(-110.72 -254.69)"/><path d="M689.79,458.19c.08-1.63-.82-3.28.47-4.9v4.9Z" transform="translate(-110.72 -254.69)"/><path d="M592.31,597l4.79-3.2.26.39-4.79,3.22Z" transform="translate(-110.72 -254.69)"/><path d="M246.61,628.9c1.64-.41,3.18.12,3.48,1.33l-3.58-1Z" transform="translate(-110.72 -254.69)"/><path d="M384,644.76l3-.2C386,646,386,646,384,644.76Z" transform="translate(-110.72 -254.69)"/><path d="M519.51,355.38l1.39,1.08-1,1L518.81,356Z" transform="translate(-110.72 -254.69)"/><path d="M476.63,637.21c1-1.29,2.48-.81,3.74-1.12l.11.6-3.87.49Z" transform="translate(-110.72 -254.69)"/><path d="M425.55,472.18l-4.12.34-.05-.52h4.18Z" transform="translate(-110.72 -254.69)"/><path d="M575.27,615.35l-3.78,2.36-.28-.53,4.09-1.79Z" transform="translate(-110.72 -254.69)"/><path d="M476.61,637.18l-3.29.69-.07-.55c1.09-.37,2.17-.8,3.38-.12Z" transform="translate(-110.72 -254.69)"/><path d="M682.59,511.86v1.76l-.41,0c-.07-.58-.14-1.17-.22-1.75Z" transform="translate(-110.72 -254.69)"/><path class="cls-1" d="M667.12,414.8c1.21-.54,1.35-1.45.57-2.65-1-1.56-1.86-3.24-3-4.68a58.5,58.5,0,0,0-5.12-5.66,66.63,66.63,0,0,0-5.7-4.77c-2.49-1.9-5.07-3.68-7.62-5.51-2-1.48-4.1-3-6.19-4.41-2.76-1.9-5.55-3.75-8.32-5.63-3.76-2.56-7.54-5.09-11.26-7.7a49.88,49.88,0,0,1-4-3.21,3.15,3.15,0,0,1-.87-1.6c1.59-.16,2.44,1,3.44,1.72,1.19.88,2.22,2,3.37,2.91a7.21,7.21,0,0,0,1.42.6c.42.21.81.48,1.49.88a7,7,0,0,1,1.93.56c4.62,2.74,9.19,5.54,13.79,8.31,2.7,1.64,5.43,3.24,8.13,4.88.77.47,1.49,1,2.23,1.53l-.23.45c-.32-.14-.66-.26-1-.43-1.17-.64-2.33-1.3-3.5-1.92-.07,0-.28.19-.42.3,2.8,2.08,5.52,4.12,8.27,6.13s5.52,3.9,7.66,6.6c.43.5.87,1,1.27,1.5.83,1.06,1.62,2.15,2.44,3.21a1.17,1.17,0,0,0,.58.41c2.89.63,3.74,3.27,5.21,5.3.93,1.28,1.81,2.61,2.64,4a18.3,18.3,0,0,1,1.78,3.39c1,2.82,1.8,5.69,2.65,8.56.25.82.37,1.68.56,2.52a94.34,94.34,0,0,1,2,16.5c0,.83.17,1.65.26,2.47l-.65.15c-.22-.93-.47-1.85-.64-2.78-.29-1.57-.57-3.15-.77-4.73-.15-1.13-.1-2.29-.26-3.42-.45-3.28-.86-6.58-1.51-9.83a33.25,33.25,0,0,0-1.79-4.91l-.58.12c.07.55.09,1.11.21,1.65.51,2.27,1.18,4.51,1.55,6.8.69,4.37,1.29,8.76,1.76,13.16.31,2.88.29,5.8.47,8.69.09,1.37.38,2.72.42,4.08,0,1.17-.13,2.36-.18,3.23a8.19,8.19,0,0,1,.76,1.72,7,7,0,0,1-.06,1.62c-.44.48-1,.89-.94,1.06.21.55-.38,1.76,1.26,1.45-.28,1.22-.57,2.33-.77,3.45a5.25,5.25,0,0,1-.86,2.59c-.19.25,0,1.13.36,1.41s.93,0,1.6,0c.07,1.45.14,3,.22,4.48-.36-.49-1.44-.54-.91-1.47,0-.06-.34-.36-.52-.54-.22.21-.58.4-.62.64a24.68,24.68,0,0,0-.19,2.71c-.06,2.76-.09,5.51-.13,8.27l-.57,0c-.1-1-.25-2-.29-3-.15-3.65-.21-7.31-.42-11-.09-1.66-.54-3.31-.68-5-.43-4.88-.83-9.75-1.15-14.64-.3-4.55-.47-9.1-.72-13.66-.07-1.21-.26-2.43-.34-3.65a2.54,2.54,0,0,1,.33-.93L676,438a6.39,6.39,0,0,0,.17-1.95c-.66-2.53-1.43-5-2.15-7.56-.37-1.28-.68-2.59-1.07-3.87a26.07,26.07,0,0,0-1.28-3.7,18.36,18.36,0,0,0-2-2.92C668.87,417,668,415.93,667.12,414.8Z" transform="translate(-110.72 -254.69)"/><path class="cls-1" d="M332.33,346.46c2.24-.5,4.47-1,6.71-1.5a207,207,0,0,1,36-4.86q22.65-.78,45.3-1.13c7.59-.12,15.2,0,22.79.33,8.51.37,17,1.1,25.48,1.69a9.22,9.22,0,0,1,1.52.34v.36c-.85.05-1.71.18-2.56.15-7.29-.3-14.58-.81-21.88-.9-17.17-.19-34.35-.41-51.53-.19-10.95.14-21.91.88-32.84,1.67-5.39.39-10.75,1.44-16.1,2.31-3.89.63-7.74,1.45-11.62,2.16a6.86,6.86,0,0,1-1.2,0Z" transform="translate(-110.72 -254.69)"/><path class="cls-1" d="M566.85,290.94c2.31,1.09,3.18,3.47,4.58,5.34,3.18,4.24,6.25,8.55,9.29,12.9,1.62,2.31,3.08,4.73,4.58,7.13a45.3,45.3,0,0,1,5.06,12.12c1,3.58,2.35,7.06,3.42,10.62.72,2.38,1.17,4.83,1.81,7.23a24.74,24.74,0,0,0,1.1,2.69,1.86,1.86,0,0,1-2.08-1.51,19.7,19.7,0,0,0-1.08-2.09,7.44,7.44,0,0,1-.52-1.23c-.12-.44-.09-.93-.24-1.35-.46-1.24-1.39-2.47-1.36-3.69,0-1.38-.88-2.08-1.21-3.11a39.4,39.4,0,0,1-1.08-5.75c0-.19,0-.44-.08-.56-1.88-2.31-1.49-5.43-2.77-7.9-1.91-3.67-4-7.26-6.16-10.77-1.53-2.47-3.36-4.75-5.05-7.12q-4-5.65-8-11.33a8.1,8.1,0,0,1-.64-1.4Z" transform="translate(-110.72 -254.69)"/><path class="cls-1" d="M669.57,516.19c1.22.38,1.85,1,1.3,2.13-1.27,2.65-2.61,5.26-3.92,7.89a31.86,31.86,0,0,1-1.63,3.19c-1.29,1.92-2.71,3.76-4,5.64a2.74,2.74,0,0,0-.36.94,13.75,13.75,0,0,1-4.16,6.51,28.3,28.3,0,0,0-2.57,3.58c-2.32,3.15-4.63,6.32-7,9.41s-5,6.27-7.55,9.39c-.07.09-.25.09-.4.15,1.06-1.86,2-3.75,3.17-5.47,1.89-2.75,3.92-5.39,6-8,1.3-1.7,2.8-3.24,4-5s2.48-3.84,3.71-5.77c.8-1.24,1.61-2.49,2.43-3.72,1.19-1.79,2.44-3.54,3.58-5.36.72-1.16,1.32-2.4,1.93-3.63.9-1.84,1.69-3.73,2.66-5.54.87-1.62,2-3.13,2.85-4.75C669.75,517.4,669.57,516.81,669.57,516.19Z" transform="translate(-110.72 -254.69)"/><path class="cls-1" d="M591.22,606.46c0-.34-.07-.87.1-1,1.43-.89,2.94-1.66,4.37-2.55,2.23-1.38,4.47-2.74,6.59-4.27,3-2.14,5.91-4.34,8.74-6.68,3.09-2.56,6.17-5.16,9-8,3.83-3.87,7.41-8,11.1-12,2.46-2.68,4.9-5.38,7.11-7.8-.12.8-.2,1.9-.45,3a3.3,3.3,0,0,1-.84,1.32c-1.95,2.16-3.9,4.32-5.91,6.41-.57.59-2,1.14-1.92,1.42.3,1.15-.7,1.46-1,2.17,0,.07-.14.12-.27-.14-.32,0-.76-.05-1,.13-1.19,1-2.33,2.11-3.47,3.21-3,2.86-5.85,5.79-8.87,8.59a101.66,101.66,0,0,1-13.79,10.46c-2.45,1.59-4.83,3.27-7.29,4.84a11.9,11.9,0,0,1-2.25.86Z" transform="translate(-110.72 -254.69)"/><path class="cls-1" d="M675,512c.29,1.59-2.7,9.67-6.67,15.52.07-2,1.23-3.49,2.1-5.16s1.58-3.47,2.29-5.24,1.27-3.52,1.9-5.28Z" transform="translate(-110.72 -254.69)"/><path class="cls-1" d="M563.66,290.13a22.47,22.47,0,0,0,1.34,2.46c2.13,3,4.33,5.91,6.46,8.89A5.71,5.71,0,0,1,572,303l-.44.17c-1.77-2.36-3.55-4.7-5.28-7.08a28.52,28.52,0,0,1-2.46-3.69,5.74,5.74,0,0,1-.16-2.26Z" transform="translate(-110.72 -254.69)"/><path class="cls-1" d="M681.44,424.81c1.8,1.64,3.43,10.71,2.49,12.61C683.07,433.08,682.26,429,681.44,424.81Z" transform="translate(-110.72 -254.69)"/><path class="cls-1" d="M571.73,291.31a48.05,48.05,0,0,1,6.64,8.91c-.62-.24-1.08-.27-1.25-.5-1.87-2.58-3.7-5.19-5.53-7.79a2.23,2.23,0,0,1-.13-.39Z" transform="translate(-110.72 -254.69)"/><path class="cls-1" d="M678.6,416.64c-1.27-2.43-2.5-4.78-3.74-7.13C677,410.84,679.13,415.18,678.6,416.64Z" transform="translate(-110.72 -254.69)"/><path class="cls-1" d="M675.61,508.31c.47-2.43.94-4.87,1.43-7.39,1.21.95,1,2.59-1,7.44Z" transform="translate(-110.72 -254.69)"/><path class="cls-1" d="M655.27,403.67c-2,.3-5.16-2.17-5.33-4.05Z" transform="translate(-110.72 -254.69)"/><path class="cls-1" d="M684.56,437.89l1.08,3.29-1.67.19V438Z" transform="translate(-110.72 -254.69)"/><path class="cls-1" d="M216.23,620.34l5.12,1.45c-.26.29-.42.66-.67.74C219.88,622.77,216.9,621.35,216.23,620.34Z" transform="translate(-110.72 -254.69)"/><path class="cls-1" d="M213,619.4a1.28,1.28,0,0,1,2,0c.16.17.07.55.09.84L213,620Z" transform="translate(-110.72 -254.69)"/><path class="cls-1" d="M649.9,387.29l-3.67-2.23.24-.4,3.61,2.26Z" transform="translate(-110.72 -254.69)"/><path class="cls-1" d="M642.14,382.44l-3.59-2.1.19-.34,3.59,2.12Z" transform="translate(-110.72 -254.69)"/><path class="cls-1" d="M650.27,380.31l2.47,1.42-.26.44L650,380.72Z" transform="translate(-110.72 -254.69)"/><path class="cls-1" d="M302.14,474l11.73-8.67c-.52,2.89-36.51,28-41.43,28.81l21-13.31-.26-.43a162,162,0,0,1-20.85,12.27,237.25,237.25,0,0,0,34-23.28l.35.42-4.78,3.89Z" transform="translate(-110.72 -254.69)"/><path class="cls-1" d="M271.82,440.6l-12.47.82c2.07-2.14,4.54-1.35,6.8-1.41a52,52,0,0,1,5.69.42Z" transform="translate(-110.72 -254.69)"/><path class="cls-1" d="M260.09,497.76l-3.36,1.78-.46-.2c.09-.71,0-1.62.34-2.11C257.88,495.6,258.78,497.61,260.09,497.76Z" transform="translate(-110.72 -254.69)"/><path class="cls-1" d="M314.36,464.84a43.35,43.35,0,0,1,4.17-2.86l.32.52-4.18,2.84Z" transform="translate(-110.72 -254.69)"/><path class="cls-1" d="M272.11,432l7.07.67,0,.39-7.06-.72Z" transform="translate(-110.72 -254.69)"/><path class="cls-1" d="M256.41,433.52h6.7v.16h-6.73Z" transform="translate(-110.72 -254.69)"/><path class="cls-1" d="M259,431.83l3.5-.15,0,.26H259Z" transform="translate(-110.72 -254.69)"/><path class="cls-1" d="M560.67,455.8a69.48,69.48,0,0,1-7.52-.54c-9.74-1.76-19.45-3.63-29.16-5.55-4.93-1-9.84-2.1-14.75-3.23-4.15-1-8.28-2-12.43-3-1.79-.42-3.61-.76-5.44-1.07a22.89,22.89,0,0,1-7.28-2.69l.09-.36c1.05.19,2.11.32,3.15.58,5.44,1.35,10.87,2.77,16.32,4.08,5.21,1.26,10.46,2.39,15.68,3.63,6.06,1.44,12.08,3,18.16,4.41a130.09,130.09,0,0,0,22.23,3.06l1,.09Z" transform="translate(-110.72 -254.69)"/><path class="cls-1" d="M540.22,457.11c-1.81-.37-3.64-.69-5.44-1.12l-27.45-6.57c-2.76-.67-5.52-1.3-8.26-2-.73-.19-1.84,0-1.84-1.33,0-.1-.49-.19-.74-.29l-1.49-.64.13-.4c2.44.52,4.9,1,7.33,1.59,4.15,1,8.29,2,12.43,3.09,2,.5,3.87,1.23,5.85,1.53,1.41.22,2.25,1.16,3.37,1.71a23.31,23.31,0,0,0,5.1,1.42c3.68.89,7.36,1.74,11,2.6Z" transform="translate(-110.72 -254.69)"/><path class="cls-1" d="M553.43,400.26l7.89-3.48.26.59-7.86,3.45Z" transform="translate(-110.72 -254.69)"/><path class="cls-1" d="M571.12,462.63c-2.4,1.77-4.72.28-7.08,0Z" transform="translate(-110.72 -254.69)"/><path class="cls-1" d="M506.61,436.16l5.27-3.32.23.39-5.3,3.29Z" transform="translate(-110.72 -254.69)"/><path class="cls-1" d="M377,607.92a7.17,7.17,0,0,1-1.75.28c-3-.24-6.08-.49-9.1-.9-.47-.06-.83-.93-1.47-1.69l12.34,1.76Z" transform="translate(-110.72 -254.69)"/><path class="cls-1" d="M381.3,611.07l11.13-2.62c1-.23,1.95-.48,2.95-.63a5.38,5.38,0,0,1,1.42.16l0,.44c-.95.23-1.89.47-2.83.67-3.51.77-7,1.57-10.53,2.26a7,7,0,0,1-2.18-.3Z" transform="translate(-110.72 -254.69)"/><path class="cls-1" d="M381.3,611.05c-1.42,1.42-3.26.52-4.81,1.23l-.11-.72,4.92-.48Z" transform="translate(-110.72 -254.69)"/><path class="cls-1" d="M432.13,427.81l-28.95-1.51,0,0,4.44-.2v-.34h-3.79l0-.38a6.61,6.61,0,0,1,1.43-.25c6.63.27,13.25.54,19.87.89a8.32,8.32,0,0,1,2.13.87,5.49,5.49,0,0,0,1.38.3c1.19.09,2.38.12,3.57.18Z" transform="translate(-110.72 -254.69)"/><path class="cls-1" d="M425.46,436.74l-26.84-1a190.28,190.28,0,0,1,26.85.43Z" transform="translate(-110.72 -254.69)"/><path class="cls-1" d="M378.31,430.52c.39-1.34,1.66-1.19,2.6-1.35,2.72-.49,5.47-.88,8.22-1.15,3.75-.38,7.52-.61,11.28-.8Z" transform="translate(-110.72 -254.69)"/><path class="cls-1" d="M383.71,427.86l12.22-2.28.09.49-12.23,2.26Z" transform="translate(-110.72 -254.69)"/><path class="cls-1" d="M375.31,460.41c3.05-.57,6.09-1.19,9.15-1.7,7.21-1.19,14.38-.12,21.54.63,6.5.68,13,1.42,19.48,2.13a4.09,4.09,0,0,1,1.64.46c-1.44,0-2.89.1-4.32,0-5.4-.48-10.8-1.07-16.2-1.56-5-.44-10-1.14-15-1.11s-9.74.86-14.61,1.35c-.52.05-1,.13-1.56.2Z" transform="translate(-110.72 -254.69)"/><path class="cls-1" d="M373,462.53c1.75-.43,3.48-.94,5.24-1.28a70.55,70.55,0,0,1,21.51-.66.77.77,0,0,1,.61.45h-5.75c-2,0-4-.13-6,0-4.73.4-9.45.94-14.18,1.41a13.83,13.83,0,0,1-1.44,0Z" transform="translate(-110.72 -254.69)"/><path class="cls-1" d="M423.74,463.05l5.86.33,0,.29-5.9-.4Z" transform="translate(-110.72 -254.69)"/></g><path class="cls-1" d="M236.1,466.71l0,.32.34-1.27a4.52,4.52,0,0,1-.85,1,4.22,4.22,0,0,0-.93,1.79,3.21,3.21,0,0,0,2.05,3.87c1.61.49,2.67-.31,3.88-1.2a4.33,4.33,0,0,1,2.82-.84c3.22.1,3.21-4.9,0-5a9,9,0,0,0-3.64.64,8.54,8.54,0,0,0-1.6.8c-.36.24-.88.8-1.16.86h1.33l-.3-.08,1.1.64.09.11.34,1.26c0,.23-.64.73,0,.22a4.39,4.39,0,0,0,.69-.74,4.29,4.29,0,0,0,.88-2.39,2.51,2.51,0,0,0-2.5-2.5,2.56,2.56,0,0,0-2.5,2.5Z" transform="translate(-110.72 -254.69)"/><path class="cls-1" d="M503.54,351.66a8.8,8.8,0,0,0-6.25,3,2.57,2.57,0,0,0,0,3.54,2.53,2.53,0,0,0,3.54,0,3.91,3.91,0,0,1,2.71-1.57,2.56,2.56,0,0,0,2.5-2.5,2.51,2.51,0,0,0-2.5-2.5Z" transform="translate(-110.72 -254.69)"/><path class="cls-1" d="M445.05,279.42h-4.3c-3.23,0-3.2,4.83,0,5,4,.2,13.74-1.14,13.19,5.36-.27,3.21,4.73,3.19,5,0a9,9,0,0,0-5.54-8.88c-3.95-1.84-8.43-1.27-12.65-1.48v5h4.3c3.21,0,3.22-5,0-5Z" transform="translate(-110.72 -254.69)"/><path class="cls-1" d="M454.89,315.94a49.31,49.31,0,0,1,5.57.1l-2.16-3.76c-.36.65-.71.68-1.44.58a2.52,2.52,0,0,0-2.5,2.5,2.57,2.57,0,0,0,2.5,2.5,5.9,5.9,0,0,0,5.76-3.06,2.53,2.53,0,0,0-2.16-3.76,49.31,49.31,0,0,0-5.57-.1c-3.21.13-3.22,5.13,0,5Z" transform="translate(-110.72 -254.69)"/><path class="cls-1" d="M463.05,335.05h2.25a2.5,2.5,0,0,0,0-5h-2.25a2.5,2.5,0,0,0,0,5Z" transform="translate(-110.72 -254.69)"/><path class="cls-1" d="M617.82,268.93a17.83,17.83,0,0,1,4.4-6.06,16.11,16.11,0,0,1,3.35-2.25,14.15,14.15,0,0,1,2.66-1.05,1,1,0,0,0-1,.59,26.42,26.42,0,0,1-6,4.92c-.6.37-7.62,3.89-7.67,3.35-.26-3.19-5.26-3.21-5,0,1.06,12.61,21.57-2.27,24.27-7.47s-3-7.23-7-5.85a21.47,21.47,0,0,0-12.28,11.3c-1.36,2.9,3,5.44,4.31,2.52Z" transform="translate(-110.72 -254.69)"/><path class="cls-1" d="M202.9,640.69a35.85,35.85,0,0,0,17.72,6.43c3,.28,3.07-4,.67-4.91a32.8,32.8,0,0,1-12.49-8.86l-2.43,4.18a16.29,16.29,0,0,1,10.81,6c2,2.49,5.56-1.06,3.54-3.53a20.37,20.37,0,0,0-13-7.3c-2.42-.33-4.22,2.18-2.44,4.18A38.09,38.09,0,0,0,220,647l.66-4.91a30.78,30.78,0,0,1-15.19-5.75c-2.63-1.86-5.13,2.47-2.53,4.32Z" transform="translate(-110.72 -254.69)"/><path class="cls-1" d="M418.1,374c-3.49,5.31.17,11,5.45,13.11,7.56,3.08,16.89,2.57,24.75,1.26a2.51,2.51,0,0,0,1.1-4.17,28.21,28.21,0,0,0-20.64-7.1c-3.19.2-3.21,5.2,0,5a23.21,23.21,0,0,1,17.1,5.63L447,383.5c-3.38.57-30.26,1.66-24.55-7,1.77-2.69-2.56-5.2-4.32-2.52Z" transform="translate(-110.72 -254.69)"/><path class="cls-1" d="M810.36,499.61l0-16.13c0-3.22-4.94-3.21-5,0q-.51,26.44.56,52.85c.13,3.29,4.63,3.14,5,0q3.25-27.83,9.29-55.21c.69-3.14-4.12-4.48-4.82-1.33q-6.15,28-9.47,56.54h5q-1.08-26.42-.56-52.85h-5l0,16.13c0,3.22,5,3.22,5,0Z" transform="translate(-110.72 -254.69)"/><path class="cls-1" d="M260.66,467.91a9.37,9.37,0,0,0-3.92-.67l1.77,4.27,3.08-3.25a2.53,2.53,0,0,0-1.76-4.27l-3.78-.07a2.5,2.5,0,0,0,0,5l3.78.07-1.77-4.26L255,468c-1.43,1.51-.47,4.36,1.77,4.27a5.11,5.11,0,0,1,2.6.49,2.49,2.49,0,0,0,3.07-1.74,2.59,2.59,0,0,0-1.75-3.08Z" transform="translate(-110.72 -254.69)"/><path class="cls-1" d="M225.09,640.1,238,643.65c3.1.85,4.43-4,1.33-4.82l-12.89-3.55c-3.11-.86-4.44,4-1.33,4.82Z" transform="translate(-110.72 -254.69)"/><path class="cls-1" d="M520.82,352.83,518,354.48a2.52,2.52,0,0,0-.9,3.42,2.55,2.55,0,0,0,3.42.89l2.84-1.64a2.5,2.5,0,1,0-2.52-4.32Z" transform="translate(-110.72 -254.69)"/><path class="cls-1" d="M483.86,334.48c3.22,0,3.22-5,0-5s-3.22,5,0,5Z" transform="translate(-110.72 -254.69)"/><path class="cls-1" d="M477.67,316.48c3.22,0,3.22-5,0-5s-3.22,5,0,5Z" transform="translate(-110.72 -254.69)"/><path class="cls-1" d="M477.66,311.64c.44.06-.65-.22-.51-.16s-.23-.13-.27-.15a4.42,4.42,0,0,1-.54-.34c.23.18-.33-.35-.43-.46.21.24-.07-.11-.13-.21a6,6,0,0,1-.3-.56L474,313.44c.29-.08.31-.09,0-.05h.06c-.21-.11-.19-.1.07.05q-.29-.22,0,.09a2.5,2.5,0,1,0,3.54-3.54,5,5,0,0,0-5.07-1.38,2.55,2.55,0,0,0-1.5,3.68,8.08,8.08,0,0,0,6.5,4.35,2.51,2.51,0,0,0,2.5-2.5,2.57,2.57,0,0,0-2.5-2.5Z" transform="translate(-110.72 -254.69)"/><path class="cls-1" d="M465.86,278.86l-2.76-.19,1.26,4.66a14.88,14.88,0,0,1,10-.5l-1.75-3.08c-.22,1.21-1.63.68-2.3.1-.48-.43-2.19-2.76-2-3.48l-1.15,1.49c.93-.68,2.67,0,3.63.28,3.06,1,4.37-3.8,1.33-4.82-2.47-.82-6.7-1.51-8.38,1.12-1.42,2.23.46,5.58,1.75,7.44a7.47,7.47,0,0,0,6.49,3.59,5.65,5.65,0,0,0,5.4-4.39,2.56,2.56,0,0,0-1.74-3.08,20.48,20.48,0,0,0-13.84,1c-2.49,1.06-.93,4.51,1.27,4.66l2.76.19c3.21.22,3.2-4.78,0-5Z" transform="translate(-110.72 -254.69)"/></svg>